<?xml version="1.0" encoding="UTF-8" standalone="no"?>
<svg
   xmlns:dc="http://purl.org/dc/elements/1.1/"
   xmlns:cc="http://creativecommons.org/ns#"
   xmlns:rdf="http://www.w3.org/1999/02/22-rdf-syntax-ns#"
   xmlns:svg="http://www.w3.org/2000/svg"
   xmlns="http://www.w3.org/2000/svg"
   xmlns:xlink="http://www.w3.org/1999/xlink"
   xmlns:sodipodi="http://sodipodi.sourceforge.net/DTD/sodipodi-0.dtd"
   xmlns:inkscape="http://www.inkscape.org/namespaces/inkscape"
   width="120px"
   height="30px"
   viewBox="0 0 120 30"
   version="1.1"
   id="svg5289"
   sodipodi:docname="dmv-logoa.svg"
   inkscape:version="0.92.4 (5da689c313, 2019-01-14)">
  <metadata
     id="metadata5293">
    <rdf:RDF>
      <cc:Work
         rdf:about="">
        <dc:format>image/svg+xml</dc:format>
        <dc:type
           rdf:resource="http://purl.org/dc/dcmitype/StillImage" />
        <dc:title>Page 1</dc:title>
      </cc:Work>
    </rdf:RDF>
  </metadata>
  <sodipodi:namedview
     pagecolor="#ffffff"
     bordercolor="#666666"
     borderopacity="1"
     objecttolerance="10"
     gridtolerance="10"
     guidetolerance="10"
     inkscape:pageopacity="0"
     inkscape:pageshadow="2"
     inkscape:window-width="1920"
     inkscape:window-height="1017"
     id="namedview5291"
     showgrid="false"
     inkscape:zoom="9.4666667"
     inkscape:cx="59.138889"
     inkscape:cy="16.745507"
     inkscape:window-x="-8"
     inkscape:window-y="-8"
     inkscape:window-maximized="1"
     inkscape:current-layer="layer11" />
  <!-- Generator: Sketch 40.3 (33839) - http://www.bohemiancoding.com/sketch -->
  <title
     id="title5191">Page 1</title>
  <desc
     id="desc5193">Created with Sketch.</desc>
  <defs
     id="defs5243">
    <path
       d="M27.369614,14.022826 C27.369614,19.2548108 27.7298983,23.6036123 30.3219063,23.6036123 C32.913646,23.6036123 33.2747351,19.2548108 33.2747351,14.022826 C33.2747351,8.79084132 32.913646,4.44150501 30.3219063,4.44150501 C27.7298983,4.44150501 27.369614,8.79084132 27.369614,14.022826 M36.752565,14.022826 C36.752565,18.4700264 36.6871075,26.6775069 30.3219063,26.6775069 C23.9572416,26.6775069 23.8915159,18.4700264 23.8915159,14.022826 C23.8915159,9.57509088 23.9572416,1.36761038 30.3219063,1.36761038 C36.6871075,1.36761038 36.752565,9.57509088 36.752565,14.022826"
       id="path-1" />
    <filter
       x="-50%"
       y="-50%"
       width="200%"
       height="200%"
       filterUnits="objectBoundingBox"
       id="filter-2">
      <feOffset
         dx="1"
         dy="2"
         in="SourceAlpha"
         result="shadowOffsetOuter1"
         id="feOffset5196" />
      <feColorMatrix
         values="0 0 0 0 0   0 0 0 0 0   0 0 0 0 0  0 0 0 1 0"
         type="matrix"
         in="shadowOffsetOuter1"
         id="feColorMatrix5198" />
    </filter>
    <path
       d="M50.0072709,8.72543817 C50.0072709,6.37055037 49.7119075,4.40899061 47.2186222,4.47450072 L46.6941578,4.47450072 L46.6941578,12.6167385 C49.1541778,12.7803801 50.0072709,11.210544 50.0072709,8.72543817 L50.0072709,8.72543817 Z M43.4127003,1.6944657 L47.3498054,1.6944657 C49.7449045,1.6944657 53.4848324,1.8257533 53.4848324,8.00589655 C53.4848324,10.3276282 52.7959195,13.859024 50.0727283,14.3496814 L54.6332889,26.3505981 L51.2214531,26.3505981 L46.7596152,14.2841713 L46.6941578,14.2841713 L46.6941578,26.3505981 L43.4127003,26.3505981 L43.4127003,1.6944657 Z"
       id="path-3" />
    <filter
       x="-50%"
       y="-50%"
       width="200%"
       height="200%"
       filterUnits="objectBoundingBox"
       id="filter-4">
      <feOffset
         dx="1"
         dy="2"
         in="SourceAlpha"
         result="shadowOffsetOuter1"
         id="feOffset5202" />
      <feColorMatrix
         values="0 0 0 0 0   0 0 0 0 0   0 0 0 0 0  0 0 0 1 0"
         type="matrix"
         in="shadowOffsetOuter1"
         id="feColorMatrix5204" />
    </filter>
    <path
       d="M69.9231584,5.06270126 C69.2667059,4.73595289 68.577793,4.44155849 67.8234226,4.44155849 C63.2298651,4.44155849 63.1974046,11.1120917 63.1974046,14.1859863 C63.1974046,17.4558765 63.459771,23.6036658 67.9546058,23.6036658 C68.6759792,23.6036658 69.2991664,23.440559 69.9231584,23.1130084 L69.9231584,25.9909075 C69.1025257,26.5144536 68.2494326,26.6775604 67.2981534,26.6775604 C60.6056649,26.6775604 59.7195748,19.5816126 59.7195748,14.4148706 C59.7195748,9.47728028 60.342762,1.36766385 67.0685157,1.36766385 C68.1837069,1.36766385 68.9713425,1.53130543 69.9231584,2.08720548 L69.9231584,5.06270126 Z"
       id="path-5" />
    <filter
       x="-50%"
       y="-50%"
       width="200%"
       height="200%"
       filterUnits="objectBoundingBox"
       id="filter-6">
      <feOffset
         dx="1"
         dy="2"
         in="SourceAlpha"
         result="shadowOffsetOuter1"
         id="feOffset5208" />
      <feColorMatrix
         values="0 0 0 0 0   0 0 0 0 0   0 0 0 0 0  0 0 0 1 0"
         type="matrix"
         in="shadowOffsetOuter1"
         id="feColorMatrix5210" />
    </filter>
    <path
       d="M2.42855215,11.1074124 L3.32617778,11.1074124 C6.58322282,11.1074124 6.98186947,9.91486105 7.08166527,6.70138978 C7.08166527,3.25636034 6.15131091,2.32852332 2.89372933,2.32852332 L2.42855215,2.32852332 L2.42855215,11.1074124 Z M0.10212973,25.1867375 L0.10212973,0.208402356 L2.69440601,0.208402356 C6.28437197,0.208402356 9.47515475,0.539428935 9.47515475,6.70138978 C9.47515475,11.5379074 7.7796993,13.2275333 3.02705866,13.2275333 L2.42855215,13.2275333 L2.42855215,25.1867375 L0.10212973,25.1867375 Z"
       id="path-7" />
    <filter
       x="-50%"
       y="-50%"
       width="200%"
       height="200%"
       filterUnits="objectBoundingBox"
       id="filter-8">
      <feOffset
         dx="1"
         dy="2"
         in="SourceAlpha"
         result="shadowOffsetOuter1"
         id="feOffset5214" />
      <feColorMatrix
         values="0 0 0 0 0   0 0 0 0 0   0 0 0 0 0  0 0 0 1 0"
         type="matrix"
         in="shadowOffsetOuter1"
         id="feColorMatrix5216" />
    </filter>
    <path
       d="M25.7295291,17.2693465 C25.7295291,21.8740385 25.3636112,25.5182722 20.4779095,25.5182722 C15.4591467,25.5182722 15.2265582,21.741414 15.2265582,17.2693465 L15.2265582,0.208375617 L17.5529806,0.208375617 L17.5529806,17.1369893 C17.5529806,21.2780302 17.7855692,23.2652593 20.4779095,23.2652593 C23.1367163,23.2652593 23.4025702,21.2780302 23.4025702,17.1369893 L23.4025702,0.208375617 L25.7295291,0.208375617 L25.7295291,17.2693465 Z"
       id="path-9" />
    <filter
       x="-50%"
       y="-50%"
       width="200%"
       height="200%"
       filterUnits="objectBoundingBox"
       id="filter-10">
      <feOffset
         dx="1"
         dy="2"
         in="SourceAlpha"
         result="shadowOffsetOuter1"
         id="feOffset5220" />
      <feColorMatrix
         values="0 0 0 0 0   0 0 0 0 0   0 0 0 0 0  0 0 0 1 0"
         type="matrix"
         in="shadowOffsetOuter1"
         id="feColorMatrix5222" />
    </filter>
    <path
       d="M35.2697389,13.2276136 L35.2697389,23.199054 L35.9015107,23.199054 C39.3911443,23.199054 40.4215628,22.0725475 40.4215628,18.4948935 C40.4215628,14.2878077 38.9262354,13.2276136 35.9680412,13.2276136 L35.2697389,13.2276136 Z M35.2697389,2.19624638 L35.2697389,11.2398498 L35.9015107,11.2398498 C37.7954847,11.2398498 39.8230563,11.5708763 39.8230563,6.56911284 C39.8230563,2.62647398 38.8924336,2.19624638 35.9015107,2.19624638 L35.2697389,2.19624638 Z M36.2003616,0.208482572 C39.4909401,0.208482572 42.2165457,0.605821423 42.2165457,6.40333217 C42.2165457,8.8547471 41.7840973,10.9419793 39.2916168,12.2668878 C42.2830763,13.2276136 42.8145157,15.5464039 42.8145157,18.3293802 C42.8145157,23.5306153 41.0195327,25.1868178 35.9680412,25.1868178 L32.9433165,25.1868178 L32.9433165,0.208482572 L36.2003616,0.208482572 Z"
       id="path-11" />
    <filter
       x="-50%"
       y="-50%"
       width="200%"
       height="200%"
       filterUnits="objectBoundingBox"
       id="filter-12">
      <feOffset
         dx="1"
         dy="2"
         in="SourceAlpha"
         result="shadowOffsetOuter1"
         id="feOffset5226" />
      <feColorMatrix
         values="0 0 0 0 0   0 0 0 0 0   0 0 0 0 0  0 0 0 1 0"
         type="matrix"
         in="shadowOffsetOuter1"
         id="feColorMatrix5228" />
    </filter>
    <polygon
       id="path-13"
       points="3.77284444 12.1794786 1.5091968 24.1707694 8.69959119 27.363117 11.0442559 27.363117 19.0700376 22.7691205 16.2575131 12.1794786 14.5647403 19.9489772 12.5283159 18.2374254 11.1794631 21.3300372 9.69808569 17.1266949 6.94753113 22.0805959 6.18055215 18.3577501 4.77858218 20.7447245" />
    <filter
       x="-50%"
       y="-50%"
       width="200%"
       height="200%"
       filterUnits="objectBoundingBox"
       id="filter-14">
      <feOffset
         dx="1"
         dy="2"
         in="SourceAlpha"
         result="shadowOffsetOuter1"
         id="feOffset5232" />
      <feColorMatrix
         values="0 0 0 0 0   0 0 0 0 0   0 0 0 0 0  0 0 0 1 0"
         type="matrix"
         in="shadowOffsetOuter1"
         id="feColorMatrix5234" />
    </filter>
    <path
       d="M14.7330787,7.1705491 L10.6599616,7.1705491 L11.929407,5.58894795 L14.7330787,4.32339965 L14.7330787,7.1705491 Z M9.906396,12.8121725 L9.906396,9.66848958 L10.784438,10.0540633 L10.8681377,11.6840618 L9.906396,12.8121725 Z M9.17241401,12.1993188 L8.32602763,11.1776285 L8.3998014,9.70137832 L9.17241401,9.35216935 L9.17241401,12.1993188 Z M4.19684244,6.85422887 L4.19684244,4.00707942 L7.63523684,6.11623747 L8.26995956,6.85422887 L4.19684244,6.85422887 Z M16.463409,2.46478434 L5.07622583,0 L3.17178939,1.3313258 L1.71482442,3.33486551 L5.36536537e-05,9.42463155 L5.35066426,11.8872768 L5.35066426,19.4292281 L6.31106466,17.1518829 L7.06543504,21.0241986 L9.60352112,15.659322 L11.1814751,20.5166958 L12.127389,17.0943944 L14.062408,19.1393793 L14.062408,11.3821805 L18.3155331,11.3821805 L18.3155331,6.23469043 L16.463409,2.46478434 Z"
       id="path-15" />
    <filter
       x="-50%"
       y="-50%"
       width="200%"
       height="200%"
       filterUnits="objectBoundingBox"
       id="filter-16">
      <feOffset
         dx="1"
         dy="2"
         in="SourceAlpha"
         result="shadowOffsetOuter1"
         id="feOffset5238" />
      <feColorMatrix
         values="0 0 0 0 0   0 0 0 0 0   0 0 0 0 0  0 0 0 1 0"
         type="matrix"
         in="shadowOffsetOuter1"
         id="feColorMatrix5240" />
    </filter>
  </defs>
  <g
     inkscape:groupmode="layer"
     id="layer10"
     inkscape:label="background"
     style="display:none">
    <rect
       style="display:inline;fill:#666666;fill-opacity:0.88235294;stroke-width:0.88612139"
       id="rect5486"
       width="120.25795"
       height="30.325918"
       x="1.335858e-08"
       y="-0.02714015" />
  </g>
  <g
     inkscape:groupmode="layer"
     id="layer8"
     inkscape:label="orcpub"
     style="display:none">
    <g
       id="g5417">
      <g
         id="Fill-1"
         style="fill:none;fill-rule:evenodd;stroke:none;stroke-width:1">
        <use
           xlink:href="#path-1"
           id="use5245"
           style="fill:#000000;fill-opacity:1;filter:url(#filter-2)"
           x="0"
           y="0"
           width="100%"
           height="100%" />
        <use
           xlink:href="#path-1"
           id="use5247"
           style="fill:#ffffff;fill-rule:evenodd"
           x="0"
           y="0"
           width="100%"
           height="100%" />
      </g>
      <g
         id="Fill-3"
         style="fill:none;fill-rule:evenodd;stroke:none;stroke-width:1">
        <use
           xlink:href="#path-3"
           id="use5250"
           style="fill:#000000;fill-opacity:1;filter:url(#filter-4)"
           x="0"
           y="0"
           width="100%"
           height="100%" />
        <use
           xlink:href="#path-3"
           id="use5252"
           style="fill:#ffffff;fill-rule:evenodd"
           x="0"
           y="0"
           width="100%"
           height="100%" />
      </g>
      <g
         id="Fill-5"
         style="fill:none;fill-rule:evenodd;stroke:none;stroke-width:1">
        <use
           xlink:href="#path-5"
           id="use5255"
           style="fill:#000000;fill-opacity:1;filter:url(#filter-6)"
           x="0"
           y="0"
           width="100%"
           height="100%" />
        <use
           xlink:href="#path-5"
           id="use5257"
           style="fill:#ffffff;fill-rule:evenodd"
           x="0"
           y="0"
           width="100%"
           height="100%" />
      </g>
      <g
         transform="translate(76.18819,1.159128)"
         id="Fill-7"
         style="fill:none;fill-rule:evenodd;stroke:none;stroke-width:1">
        <use
           height="100%"
           width="100%"
           y="0"
           x="0"
           style="fill:#000000;fill-opacity:1;filter:url(#filter-8)"
           id="use5260"
           xlink:href="#path-7" />
        <use
           height="100%"
           width="100%"
           y="0"
           x="0"
           style="fill:#ffffff;fill-rule:evenodd"
           id="use5262"
           xlink:href="#path-7" />
      </g>
      <g
         transform="translate(76.18819,1.159128)"
         id="Fill-9"
         style="fill:none;fill-rule:evenodd;stroke:none;stroke-width:1">
        <use
           height="100%"
           width="100%"
           y="0"
           x="0"
           style="fill:#000000;fill-opacity:1;filter:url(#filter-10)"
           id="use5265"
           xlink:href="#path-9" />
        <use
           height="100%"
           width="100%"
           y="0"
           x="0"
           style="fill:#ffffff;fill-rule:evenodd"
           id="use5267"
           xlink:href="#path-9" />
      </g>
      <g
         transform="translate(76.18819,1.159128)"
         id="Fill-11"
         style="fill:none;fill-rule:evenodd;stroke:none;stroke-width:1">
        <use
           height="100%"
           width="100%"
           y="0"
           x="0"
           style="fill:#000000;fill-opacity:1;filter:url(#filter-12)"
           id="use5270"
           xlink:href="#path-11" />
        <use
           height="100%"
           width="100%"
           y="0"
           x="0"
           style="fill:#ffffff;fill-rule:evenodd"
           id="use5272"
           xlink:href="#path-11" />
      </g>
    </g>
  </g>
  <g
     inkscape:groupmode="layer"
     id="layer11"
     inkscape:label="DMV"
     style="display:inline">
    <text
       id="text5496"
       y="25.966503"
       x="80.520538"
       style="font-style:normal;font-variant:normal;font-weight:normal;font-stretch:normal;font-size:21.33333397px;line-height:1.25;font-family:'Futura PT';-inkscape-font-specification:'Futura PT';letter-spacing:0px;word-spacing:0px;display:inline;fill:#000000;fill-opacity:1;stroke:none;"
       xml:space="preserve"><tspan
         style="font-size:13.33333302px;fill:#000000;"
         y="25.966503"
         x="80.520538"
         id="tspan5494"
         sodipodi:role="line">VAULT</tspan></text>
    <text
       xml:space="preserve"
       style="font-style:normal;font-variant:normal;font-weight:normal;font-stretch:normal;font-size:21.33333397px;line-height:1.25;font-family:'Futura PT';-inkscape-font-specification:'Futura PT';letter-spacing:0px;word-spacing:0px;display:inline;fill:#000000;fill-opacity:1;stroke:none"
       x="23.005869"
       y="25.966501"
       id="text5492"><tspan
         sodipodi:role="line"
         id="tspan5490"
         x="23.005869"
         y="25.966501"
         style="font-size:13.33333302px;fill:#000000">MASTER'S</tspan></text>
    <g
       id="g5558">
      <text
         xml:space="preserve"
         style="font-style:normal;font-variant:normal;font-weight:normal;font-stretch:normal;font-size:21.33333397px;line-height:1.25;font-family:'Futura PT';-inkscape-font-specification:'Futura PT';letter-spacing:0px;word-spacing:0px;display:inline;fill:#000000;fill-opacity:1;stroke:none;"
         x="29.670416"
         y="12.46357"
         id="text5448"><tspan
           sodipodi:role="line"
           id="tspan5446"
           x="29.670416"
           y="12.46357"
           style="font-style:normal;font-variant:normal;font-weight:600;font-stretch:normal;font-size:16px;line-height:0;font-family:'Futura PT';-inkscape-font-specification:'Futura PT Semi-Bold';fill:#000000;">DUNGEON</tspan></text>
      <text
         id="text5548"
         y="11.268459"
         x="28.923471"
         style="font-style:normal;font-variant:normal;font-weight:normal;font-stretch:normal;font-size:21.33333397px;line-height:1.25;font-family:'Futura PT';-inkscape-font-specification:'Futura PT';letter-spacing:0px;word-spacing:0px;display:inline;fill:#ffffff;fill-opacity:1;stroke:none"
         xml:space="preserve"><tspan
           style="font-style:normal;font-variant:normal;font-weight:600;font-stretch:normal;font-size:16px;line-height:0;font-family:'Futura PT';-inkscape-font-specification:'Futura PT Semi-Bold';fill:#ffffff"
           y="11.268459"
           x="28.923471"
           id="tspan5546"
           sodipodi:role="line">DUNGEON</tspan></text>
    </g>
    <text
       id="text5552"
       y="25.368946"
       x="22.33362"
       style="font-style:normal;font-variant:normal;font-weight:normal;font-stretch:normal;font-size:21.33333397px;line-height:1.25;font-family:'Futura PT';-inkscape-font-specification:'Futura PT';letter-spacing:0px;word-spacing:0px;display:inline;fill:#000000;fill-opacity:1;stroke:none"
       xml:space="preserve"><tspan
         style="font-size:13.33333302px;fill:#ffffff"
         y="25.368946"
         x="22.33362"
         id="tspan5550"
         sodipodi:role="line">MASTER'S</tspan></text>
    <text
       xml:space="preserve"
       style="font-style:normal;font-variant:normal;font-weight:normal;font-stretch:normal;font-size:21.33333397px;line-height:1.25;font-family:'Futura PT';-inkscape-font-specification:'Futura PT';letter-spacing:0px;word-spacing:0px;display:inline;fill:#000000;fill-opacity:1;stroke:none"
       x="79.861107"
       y="25.294252"
       id="text5562"><tspan
         sodipodi:role="line"
         id="tspan5560"
         x="79.861107"
         y="25.294252"
         style="font-size:13.33333302px;fill:#ffffff">VAULT</tspan></text>
  </g>
  <g
     inkscape:groupmode="layer"
     id="layer9"
     inkscape:label="Face"
     style="display:inline">
    <g
       id="g5431">
      <g
         id="Fill-14"
         style="fill:none;fill-rule:evenodd;stroke:none;stroke-width:1">
        <use
           xlink:href="#path-13"
           id="use5276"
           style="fill:#000000;fill-opacity:1;filter:url(#filter-14)"
           x="0"
           y="0"
           width="100%"
           height="100%" />
        <use
           xlink:href="#path-13"
           id="use5278"
           style="fill:#ffffff;fill-rule:evenodd"
           x="0"
           y="0"
           width="100%"
           height="100%" />
      </g>
      <g
         id="g5422">
        <g
           style="fill:none;fill-rule:evenodd;stroke:none;stroke-width:1"
           id="Fill-16">
          <use
             height="100%"
             width="100%"
             y="0"
             x="0"
             style="fill:#000000;fill-opacity:1;filter:url(#filter-16)"
             id="use5281"
             xlink:href="#path-15" />
          <use
             height="100%"
             width="100%"
             y="0"
             x="0"
             style="fill:#ffffff;fill-rule:evenodd"
             id="use5283"
             xlink:href="#path-15" />
        </g>
      </g>
    </g>
  </g>
</svg>
