<?xml version="1.0" encoding="UTF-8" standalone="no"?>
<svg
   xmlns:dc="http://purl.org/dc/elements/1.1/"
   xmlns:cc="http://creativecommons.org/ns#"
   xmlns:rdf="http://www.w3.org/1999/02/22-rdf-syntax-ns#"
   xmlns:svg="http://www.w3.org/2000/svg"
   xmlns="http://www.w3.org/2000/svg"
   xmlns:xlink="http://www.w3.org/1999/xlink"
   xmlns:sodipodi="http://sodipodi.sourceforge.net/DTD/sodipodi-0.dtd"
   xmlns:inkscape="http://www.inkscape.org/namespaces/inkscape"
   width="120px"
   height="30px"
   viewBox="0 0 120 30"
   version="1.1"
   id="svg5289"
   sodipodi:docname="dmv-logo.svg"
   inkscape:version="0.92.4 (5da689c313, 2019-01-14)">
  <metadata
     id="metadata5293">
    <rdf:RDF>
      <cc:Work
         rdf:about="">
        <dc:format>image/svg+xml</dc:format>
        <dc:type
           rdf:resource="http://purl.org/dc/dcmitype/StillImage" />
        <dc:title>Page 1</dc:title>
      </cc:Work>
    </rdf:RDF>
  </metadata>
  <sodipodi:namedview
     pagecolor="#ffffff"
     bordercolor="#666666"
     borderopacity="1"
     objecttolerance="10"
     gridtolerance="10"
     guidetolerance="10"
     inkscape:pageopacity="0"
     inkscape:pageshadow="2"
     inkscape:window-width="1920"
     inkscape:window-height="1017"
     id="namedview5291"
     showgrid="false"
     inkscape:zoom="9.4666667"
     inkscape:cx="59.138889"
     inkscape:cy="16.745507"
     inkscape:window-x="-8"
     inkscape:window-y="-8"
     inkscape:window-maximized="1"
     inkscape:current-layer="layer11" />
  <!-- Generator: Sketch 40.3 (33839) - http://www.bohemiancoding.com/sketch -->
  <title
     id="title5191">Page 1</title>
  <desc
     id="desc5193">Created with Sketch.</desc>
  <defs
     id="defs5243">
    <path
       d="M27.369614,14.022826 C27.369614,19.2548108 27.7298983,23.6036123 30.3219063,23.6036123 C32.913646,23.6036123 33.2747351,19.2548108 33.2747351,14.022826 C33.2747351,8.79084132 32.913646,4.44150501 30.3219063,4.44150501 C27.7298983,4.44150501 27.369614,8.79084132 27.369614,14.022826 M36.752565,14.022826 C36.752565,18.4700264 36.6871075,26.6775069 30.3219063,26.6775069 C23.9572416,26.6775069 23.8915159,18.4700264 23.8915159,14.022826 C23.8915159,9.57509088 23.9572416,1.36761038 30.3219063,1.36761038 C36.6871075,1.36761038 36.752565,9.57509088 36.752565,14.022826"
       id="path-1" />
    <filter
       x="-50%"
       y="-50%"
       width="200%"
       height="200%"
       filterUnits="objectBoundingBox"
       id="filter-2">
      <feOffset
         dx="1"
         dy="2"
         in="SourceAlpha"
         result="shadowOffsetOuter1"
         id="feOffset5196" />
      <feColorMatrix
         values="0 0 0 0 0   0 0 0 0 0   0 0 0 0 0  0 0 0 1 0"
         type="matrix"
         in="shadowOffsetOuter1"
         id="feColorMatrix5198" />
    </filter>
    <path
       d="M50.0072709,8.72543817 C50.0072709,6.37055037 49.7119075,4.40899061 47.2186222,4.47450072 L46.6941578,4.47450072 L46.6941578,12.6167385 C49.1541778,12.7803801 50.0072709,11.210544 50.0072709,8.72543817 L50.0072709,8.72543817 Z M43.4127003,1.6944657 L47.3498054,1.6944657 C49.7449045,1.6944657 53.4848324,1.8257533 53.4848324,8.00589655 C53.4848324,10.3276282 52.7959195,13.859024 50.0727283,14.3496814 L54.6332889,26.3505981 L51.2214531,26.3505981 L46.7596152,14.2841713 L46.6941578,14.2841713 L46.6941578,26.3505981 L43.4127003,26.3505981 L43.4127003,1.6944657 Z"
       id="path-3" />
    <filter
       x="-50%"
       y="-50%"
       width="200%"
       height="200%"
       filterUnits="objectBoundingBox"
       id="filter-4">
      <feOffset
         dx="1"
         dy="2"
         in="SourceAlpha"
         result="shadowOffsetOuter1"
         id="feOffset5202" />
      <feColorMatrix
         values="0 0 0 0 0   0 0 0 0 0   0 0 0 0 0  0 0 0 1 0"
         type="matrix"
         in="shadowOffsetOuter1"
         id="feColorMatrix5204" />
    </filter>
    <path
       d="M69.9231584,5.06270126 C69.2667059,4.73595289 68.577793,4.44155849 67.8234226,4.44155849 C63.2298651,4.44155849 63.1974046,11.1120917 63.1974046,14.1859863 C63.1974046,17.4558765 63.459771,23.6036658 67.9546058,23.6036658 C68.6759792,23.6036658 69.2991664,23.440559 69.9231584,23.1130084 L69.9231584,25.9909075 C69.1025257,26.5144536 68.2494326,26.6775604 67.2981534,26.6775604 C60.6056649,26.6775604 59.7195748,19.5816126 59.7195748,14.4148706 C59.7195748,9.47728028 60.342762,1.36766385 67.0685157,1.36766385 C68.1837069,1.36766385 68.9713425,1.53130543 69.9231584,2.08720548 L69.9231584,5.06270126 Z"
       id="path-5" />
    <filter
       x="-50%"
       y="-50%"
       width="200%"
       height="200%"
       filterUnits="objectBoundingBox"
       id="filter-6">
      <feOffset
         dx="1"
         dy="2"
         in="SourceAlpha"
         result="shadowOffsetOuter1"
         id="feOffset5208" />
      <feColorMatrix
         values="0 0 0 0 0   0 0 0 0 0   0 0 0 0 0  0 0 0 1 0"
         type="matrix"
         in="shadowOffsetOuter1"
         id="feColorMatrix5210" />
    </filter>
    <path
       d="M2.42855215,11.1074124 L3.32617778,11.1074124 C6.58322282,11.1074124 6.98186947,9.91486105 7.08166527,6.70138978 C7.08166527,3.25636034 6.15131091,2.32852332 2.89372933,2.32852332 L2.42855215,2.32852332 L2.42855215,11.1074124 Z M0.10212973,25.1867375 L0.10212973,0.208402356 L2.69440601,0.208402356 C6.28437197,0.208402356 9.47515475,0.539428935 9.47515475,6.70138978 C9.47515475,11.5379074 7.7796993,13.2275333 3.02705866,13.2275333 L2.42855215,13.2275333 L2.42855215,25.1867375 L0.10212973,25.1867375 Z"
       id="path-7" />
    <filter
       x="-50%"
       y="-50%"
       width="200%"
       height="200%"
       filterUnits="objectBoundingBox"
       id="filter-8">
      <feOffset
         dx="1"
         dy="2"
         in="SourceAlpha"
         result="shadowOffsetOuter1"
         id="feOffset5214" />
      <feColorMatrix
         values="0 0 0 0 0   0 0 0 0 0   0 0 0 0 0  0 0 0 1 0"
         type="matrix"
         in="shadowOffsetOuter1"
         id="feColorMatrix5216" />
    </filter>
    <path
       d="M25.7295291,17.2693465 C25.7295291,21.8740385 25.3636112,25.5182722 20.4779095,25.5182722 C15.4591467,25.5182722 15.2265582,21.741414 15.2265582,17.2693465 L15.2265582,0.208375617 L17.5529806,0.208375617 L17.5529806,17.1369893 C17.5529806,21.2780302 17.7855692,23.2652593 20.4779095,23.2652593 C23.1367163,23.2652593 23.4025702,21.2780302 23.4025702,17.1369893 L23.4025702,0.208375617 L25.7295291,0.208375617 L25.7295291,17.2693465 Z"
       id="path-9" />
    <filter
       x="-50%"
       y="-50%"
       width="200%"
       height="200%"
       filterUnits="objectBoundingBox"
       id="filter-10">
      <feOffset
         dx="1"
         dy="2"
         in="SourceAlpha"
         result="shadowOffsetOuter1"
         id="feOffset5220" />
      <feColorMatrix
         values="0 0 0 0 0   0 0 0 0 0   0 0 0 0 0  0 0 0 1 0"
         type="matrix"
         in="shadowOffsetOuter1"
         id="feColorMatrix5222" />
    </filter>
    <path
       d="M35.2697389,13.2276136 L35.2697389,23.199054 L35.9015107,23.199054 C39.3911443,23.199054 40.4215628,22.0725475 40.4215628,18.4948935 C40.4215628,14.2878077 38.9262354,13.2276136 35.9680412,13.2276136 L35.2697389,13.2276136 Z M35.2697389,2.19624638 L35.2697389,11.2398498 L35.9015107,11.2398498 C37.7954847,11.2398498 39.8230563,11.5708763 39.8230563,6.56911284 C39.8230563,2.62647398 38.8924336,2.19624638 35.9015107,2.19624638 L35.2697389,2.19624638 Z M36.2003616,0.208482572 C39.4909401,0.208482572 42.2165457,0.605821423 42.2165457,6.40333217 C42.2165457,8.8547471 41.7840973,10.9419793 39.2916168,12.2668878 C42.2830763,13.2276136 42.8145157,15.5464039 42.8145157,18.3293802 C42.8145157,23.5306153 41.0195327,25.1868178 35.9680412,25.1868178 L32.9433165,25.1868178 L32.9433165,0.208482572 L36.2003616,0.208482572 Z"
       id="path-11" />
    <filter
       x="-50%"
       y="-50%"
       width="200%"
       height="200%"
       filterUnits="objectBoundingBox"
       id="filter-12">
      <feOffset
         dx="1"
         dy="2"
         in="SourceAlpha"
         result="shadowOffsetOuter1"
         id="feOffset5226" />
      <feColorMatrix
         values="0 0 0 0 0   0 0 0 0 0   0 0 0 0 0  0 0 0 1 0"
         type="matrix"
         in="shadowOffsetOuter1"
         id="feColorMatrix5228" />
    </filter>
    <polygon
       id="path-13"
       points="3.77284444 12.1794786 1.5091968 24.1707694 8.69959119 27.363117 11.0442559 27.363117 19.0700376 22.7691205 16.2575131 12.1794786 14.5647403 19.9489772 12.5283159 18.2374254 11.1794631 21.3300372 9.69808569 17.1266949 6.94753113 22.0805959 6.18055215 18.3577501 4.77858218 20.7447245" />
    <filter
       x="-50%"
       y="-50%"
       width="200%"
       height="200%"
       filterUnits="objectBoundingBox"
       id="filter-14">
      <feOffset
         dx="1"
         dy="2"
         in="SourceAlpha"
         result="shadowOffsetOuter1"
         id="feOffset5232" />
      <feColorMatrix
         values="0 0 0 0 0   0 0 0 0 0   0 0 0 0 0  0 0 0 1 0"
         type="matrix"
         in="shadowOffsetOuter1"
         id="feColorMatrix5234" />
    </filter>
    <path
       d="M14.7330787,7.1705491 L10.6599616,7.1705491 L11.929407,5.58894795 L14.7330787,4.32339965 L14.7330787,7.1705491 Z M9.906396,12.8121725 L9.906396,9.66848958 L10.784438,10.0540633 L10.8681377,11.6840618 L9.906396,12.8121725 Z M9.17241401,12.1993188 L8.32602763,11.1776285 L8.3998014,9.70137832 L9.17241401,9.35216935 L9.17241401,12.1993188 Z M4.19684244,6.85422887 L4.19684244,4.00707942 L7.63523684,6.11623747 L8.26995956,6.85422887 L4.19684244,6.85422887 Z M16.463409,2.46478434 L5.07622583,0 L3.17178939,1.3313258 L1.71482442,3.33486551 L5.36536537e-05,9.42463155 L5.35066426,11.8872768 L5.35066426,19.4292281 L6.31106466,17.1518829 L7.06543504,21.0241986 L9.60352112,15.659322 L11.1814751,20.5166958 L12.127389,17.0943944 L14.062408,19.1393793 L14.062408,11.3821805 L18.3155331,11.3821805 L18.3155331,6.23469043 L16.463409,2.46478434 Z"
       id="path-15" />
    <filter
       x="-50%"
       y="-50%"
       width="200%"
       height="200%"
       filterUnits="objectBoundingBox"
       id="filter-16">
      <feOffset
         dx="1"
         dy="2"
         in="SourceAlpha"
         result="shadowOffsetOuter1"
         id="feOffset5238" />
      <feColorMatrix
         values="0 0 0 0 0   0 0 0 0 0   0 0 0 0 0  0 0 0 1 0"
         type="matrix"
         in="shadowOffsetOuter1"
         id="feColorMatrix5240" />
    </filter>
  </defs>
  <g
     inkscape:groupmode="layer"
     id="layer10"
     inkscape:label="background"
     style="display:none">
    <rect
       style="display:inline;fill:#666666;fill-opacity:0.88235294;stroke-width:0.88612139"
       id="rect5486"
       width="120.25795"
       height="30.325918"
       x="1.335858e-08"
       y="-0.02714015" />
  </g>
  <g
     inkscape:groupmode="layer"
     id="layer8"
     inkscape:label="orcpub"
     style="display:none">
    <g
       id="g5417">
      <g
         id="Fill-1"
         style="fill:none;fill-rule:evenodd;stroke:none;stroke-width:1">
        <use
           xlink:href="#path-1"
           id="use5245"
           style="fill:#000000;fill-opacity:1;filter:url(#filter-2)"
           x="0"
           y="0"
           width="100%"
           height="100%" />
        <use
           xlink:href="#path-1"
           id="use5247"
           style="fill:#ffffff;fill-rule:evenodd"
           x="0"
           y="0"
           width="100%"
           height="100%" />
      </g>
      <g
         id="Fill-3"
         style="fill:none;fill-rule:evenodd;stroke:none;stroke-width:1">
        <use
           xlink:href="#path-3"
           id="use5250"
           style="fill:#000000;fill-opacity:1;filter:url(#filter-4)"
           x="0"
           y="0"
           width="100%"
           height="100%" />
        <use
           xlink:href="#path-3"
           id="use5252"
           style="fill:#ffffff;fill-rule:evenodd"
           x="0"
           y="0"
           width="100%"
           height="100%" />
      </g>
      <g
         id="Fill-5"
         style="fill:none;fill-rule:evenodd;stroke:none;stroke-width:1">
        <use
           xlink:href="#path-5"
           id="use5255"
           style="fill:#000000;fill-opacity:1;filter:url(#filter-6)"
           x="0"
           y="0"
           width="100%"
           height="100%" />
        <use
           xlink:href="#path-5"
           id="use5257"
           style="fill:#ffffff;fill-rule:evenodd"
           x="0"
           y="0"
           width="100%"
           height="100%" />
      </g>
      <g
         transform="translate(76.18819,1.159128)"
         id="Fill-7"
         style="fill:none;fill-rule:evenodd;stroke:none;stroke-width:1">
        <use
           height="100%"
           width="100%"
           y="0"
           x="0"
           style="fill:#000000;fill-opacity:1;filter:url(#filter-8)"
           id="use5260"
           xlink:href="#path-7" />
        <use
           height="100%"
           width="100%"
           y="0"
           x="0"
           style="fill:#ffffff;fill-rule:evenodd"
           id="use5262"
           xlink:href="#path-7" />
      </g>
      <g
         transform="translate(76.18819,1.159128)"
         id="Fill-9"
         style="fill:none;fill-rule:evenodd;stroke:none;stroke-width:1">
        <use
           height="100%"
           width="100%"
           y="0"
           x="0"
           style="fill:#000000;fill-opacity:1;filter:url(#filter-10)"
           id="use5265"
           xlink:href="#path-9" />
        <use
           height="100%"
           width="100%"
           y="0"
           x="0"
           style="fill:#ffffff;fill-rule:evenodd"
           id="use5267"
           xlink:href="#path-9" />
      </g>
      <g
         transform="translate(76.18819,1.159128)"
         id="Fill-11"
         style="fill:none;fill-rule:evenodd;stroke:none;stroke-width:1">
        <use
           height="100%"
           width="100%"
           y="0"
           x="0"
           style="fill:#000000;fill-opacity:1;filter:url(#filter-12)"
           id="use5270"
           xlink:href="#path-11" />
        <use
           height="100%"
           width="100%"
           y="0"
           x="0"
           style="fill:#ffffff;fill-rule:evenodd"
           id="use5272"
           xlink:href="#path-11" />
      </g>
    </g>
  </g>
  <g
     inkscape:groupmode="layer"
     id="layer11"
     inkscape:label="DMV"
     style="display:inline">
    <g
       aria-label="VAULT"
       style="font-style:normal;font-variant:normal;font-weight:normal;font-stretch:normal;font-size:21.33333397px;line-height:1.25;font-family:'Futura PT';-inkscape-font-specification:'Futura PT';letter-spacing:0px;word-spacing:0px;display:inline;fill:#000000;fill-opacity:1;stroke:none"
       id="text5496">
      <path
         d="m 80.573872,17.07317 3.946666,9.466666 3.946667,-9.466666 h -1.466667 l -2.48,6.2 -2.48,-6.2 z"
         style="font-size:13.33333302px;fill:#000000"
         id="path168" />
      <path
         d="m 95.116996,25.966503 h 1.466667 L 92.37033,16.55317 87.943663,25.966503 h 1.466667 l 0.973333,-2.146666 h 3.8 z m -4.173333,-3.426666 1.373333,-3.013334 1.32,3.013334 z"
         style="font-size:13.33333302px;fill:#000000"
         id="path170" />
      <path
         d="m 97.706996,17.07317 v 5.72 c 0,0.706667 0.146667,1.56 0.826667,2.306666 0.466666,0.506667 1.253333,1.04 2.466667,1.04 1.21333,0 2,-0.533333 2.46667,-1.04 0.68,-0.746666 0.82666,-1.599999 0.82666,-2.306666 v -5.72 h -1.36 v 5.36 c 0,0.48 -0.0133,1.066667 -0.28,1.533333 -0.26666,0.453334 -0.86666,0.92 -1.65333,0.92 -0.78667,0 -1.386667,-0.466666 -1.653334,-0.92 -0.266667,-0.466666 -0.28,-1.053333 -0.28,-1.533333 v -5.36 z"
         style="font-size:13.33333302px;fill:#000000"
         id="path172" />
      <path
         d="m 106.43095,17.07317 v 8.893333 h 3.97334 v -1.28 h -2.61334 V 17.07317 Z"
         style="font-size:13.33333302px;fill:#000000"
         id="path174" />
      <path
         d="m 115.80741,18.35317 v -1.28 h -5.44 v 1.28 h 2.04 v 7.613333 h 1.36 V 18.35317 Z"
         style="font-size:13.33333302px;fill:#000000"
         id="path176" />
    </g>
    <g
       aria-label="MASTER'S"
       style="font-style:normal;font-variant:normal;font-weight:normal;font-stretch:normal;font-size:21.33333397px;line-height:1.25;font-family:'Futura PT';-inkscape-font-specification:'Futura PT';letter-spacing:0px;word-spacing:0px;display:inline;fill:#000000;fill-opacity:1;stroke:none"
       id="text5492">
      <path
         d="m 25.192536,25.966501 0.933333,-5.373333 2.56,5.786667 2.586666,-5.773334 0.906667,5.36 h 1.386667 l -1.68,-9.56 -3.12,6.906667 -3.093333,-6.906667 -1.866667,9.56 z"
         style="font-size:13.33333302px;fill:#000000"
         id="path151" />
      <path
         d="m 41.586701,25.966501 h 1.466667 l -4.213333,-9.413333 -4.426667,9.413333 h 1.466667 l 0.973333,-2.146666 h 3.8 z m -4.173333,-3.426666 1.373334,-3.013334 1.319999,3.013334 z"
         style="font-size:13.33333302px;fill:#000000"
         id="path153" />
      <path
         d="m 48.849619,18.406501 c -0.186667,-0.373333 -0.44,-0.68 -0.68,-0.893333 -0.28,-0.24 -0.826667,-0.6 -1.786667,-0.6 -1.666666,0 -2.6,1.146667 -2.6,2.346667 0,1.333333 1.08,1.946666 1.813334,2.253333 l 0.853333,0.36 c 0.586666,0.24 1.28,0.613333 1.28,1.52 0,0.893333 -0.64,1.493333 -1.466667,1.493333 -0.533333,0 -0.906666,-0.213333 -1.16,-0.533333 -0.213333,-0.28 -0.373333,-0.693333 -0.373333,-1.133333 l -1.346667,0.293333 c 0.05333,0.613333 0.266667,1.2 0.746667,1.733333 0.453333,0.506667 1.066667,0.893334 2.093333,0.893334 1.666667,0 2.866667,-1.16 2.866667,-2.853334 0,-1.013333 -0.453334,-1.946666 -2.093334,-2.613333 l -0.893333,-0.36 c -0.866666,-0.346667 -0.96,-0.813333 -0.96,-1.08 0,-0.573333 0.426667,-1.066667 1.253333,-1.066667 0.386667,0 0.68,0.09333 0.96,0.32 0.2,0.173334 0.32,0.36 0.4,0.56 z"
         style="font-size:13.33333302px;fill:#000000"
         id="path155" />
      <path
         d="m 55.037534,18.353168 v -1.28 h -5.44 v 1.28 h 2.04 v 7.613333 h 1.36 v -7.613333 z"
         style="font-size:13.33333302px;fill:#000000"
         id="path157" />
      <path
         d="m 61.140659,17.073168 h -4.906666 v 8.893333 h 4.906666 v -1.28 h -3.546666 v -2.8 h 3.44 v -1.28 h -3.44 v -2.253333 h 3.546666 z"
         style="font-size:13.33333302px;fill:#000000"
         id="path159" />
      <path
         d="m 62.900661,17.073168 v 8.893333 h 1.36 v -3.64 h 0.24 l 2.546666,3.64 h 1.64 l -2.773333,-3.8 c 1.186666,-0.266666 1.973333,-1.2 1.973333,-2.48 0,-0.386666 -0.08,-1.44 -1.053333,-2.093333 -0.573334,-0.386667 -1.266667,-0.52 -2.346667,-0.52 z m 1.36,1.253333 h 0.466666 c 0.666667,0 1.853333,0.12 1.853333,1.373334 0,1.413333 -1.519999,1.453333 -1.893333,1.453333 h -0.426666 z"
         style="font-size:13.33333302px;fill:#000000"
         id="path161" />
      <path
         d="m 71.023369,17.073168 h -1.44 l 0.24,3.573333 h 0.96 z"
         style="font-size:13.33333302px;fill:#000000"
         id="path163" />
      <path
         d="m 78.485033,18.406501 c -0.186667,-0.373333 -0.44,-0.68 -0.68,-0.893333 -0.28,-0.24 -0.826667,-0.6 -1.786667,-0.6 -1.666666,0 -2.6,1.146667 -2.6,2.346667 0,1.333333 1.08,1.946666 1.813334,2.253333 l 0.853333,0.36 c 0.586667,0.24 1.28,0.613333 1.28,1.52 0,0.893333 -0.64,1.493333 -1.466667,1.493333 -0.533333,0 -0.906666,-0.213333 -1.16,-0.533333 -0.213333,-0.28 -0.373333,-0.693333 -0.373333,-1.133333 l -1.346667,0.293333 c 0.05333,0.613333 0.266667,1.2 0.746667,1.733333 0.453333,0.506667 1.066667,0.893334 2.093333,0.893334 1.666667,0 2.866667,-1.16 2.866667,-2.853334 0,-1.013333 -0.453333,-1.946666 -2.093333,-2.613333 l -0.893334,-0.36 c -0.866666,-0.346667 -0.96,-0.813333 -0.96,-1.08 0,-0.573333 0.426667,-1.066667 1.253334,-1.066667 0.386666,0 0.68,0.09333 0.96,0.32 0.2,0.173334 0.32,0.36 0.4,0.56 z"
         style="font-size:13.33333302px;fill:#000000"
         id="path165" />
    </g>
    <g
       id="g5558">
      <g
         aria-label="DUNGEON"
         style="font-style:normal;font-variant:normal;font-weight:normal;font-stretch:normal;font-size:21.33333397px;line-height:1.25;font-family:'Futura PT';-inkscape-font-specification:'Futura PT';letter-spacing:0px;word-spacing:0px;display:inline;fill:#000000;fill-opacity:1;stroke:none"
         id="text5448">
        <path
           d="M 30.838416,1.7915696 V 12.46357 h 3.456 c 0.896,0 2.736,-0.112 4.208,-1.6 0.88,-0.8800004 1.456,-2.0960004 1.456,-3.7760004 0,-1.664 -0.592,-2.912 -1.536,-3.824 -1.312,-1.264 -2.8,-1.472 -4.208,-1.472 z m 2.464,2.08 h 0.656 c 0.752,0 1.792,0.112 2.592,0.912 0.416,0.416 0.88,1.152 0.88,2.304 0,1.184 -0.464,2.096 -1.04,2.576 -0.8,0.6720004 -1.92,0.7200004 -2.432,0.7200004 h -0.656 z"
           style="font-style:normal;font-variant:normal;font-weight:600;font-stretch:normal;font-size:16px;line-height:0;font-family:'Futura PT';-inkscape-font-specification:'Futura PT Semi-Bold';fill:#000000"
           id="path121" />
        <path
           d="m 50.831166,1.7915696 h -2.464 v 6.256 c 0,0.464 -0.032,1.248 -0.56,1.792 -0.432,0.4640004 -1.024,0.5600004 -1.488,0.5600004 -0.464,0 -1.056,-0.096 -1.488,-0.5600004 -0.528,-0.544 -0.56,-1.328 -0.56,-1.792 v -6.256 h -2.464 v 6.32 c 0,1.024 0.128,2.2880004 1.184,3.3760004 1.024,1.056 2.208,1.216 3.328,1.216 1.12,0 2.304,-0.16 3.328,-1.216 1.056,-1.088 1.184,-2.3520004 1.184,-3.3760004 z"
           style="font-style:normal;font-variant:normal;font-weight:600;font-stretch:normal;font-size:16px;line-height:0;font-family:'Futura PT';-inkscape-font-specification:'Futura PT Semi-Bold';fill:#000000"
           id="path123" />
        <path
           d="M 55.646166,12.46357 V 5.5515696 l 5.792,6.9120004 h 2.144 V 1.7915696 h -2.464 v 6.88 l -5.792,-6.88 h -2.144 V 12.46357 Z"
           style="font-style:normal;font-variant:normal;font-weight:600;font-stretch:normal;font-size:16px;line-height:0;font-family:'Futura PT';-inkscape-font-specification:'Futura PT Semi-Bold';fill:#000000"
           id="path125" />
        <path
           d="m 71.068166,8.6235696 h 2.576 c -0.208,0.784 -0.688,1.2 -0.768,1.264 -0.24,0.2080004 -0.8,0.5760004 -1.856,0.5760004 -0.816,0 -1.536,-0.192 -2.16,-0.8320004 -0.448,-0.448 -0.896,-1.232 -0.896,-2.448 0,-0.992 0.32,-1.904 0.912,-2.528 0.512,-0.544 1.232,-0.864 2.208,-0.864 0.608,0 1.152,0.16 1.632,0.512 0.416,0.304 0.736,0.736 0.944,1.152 l 2.224,-1.2 c -0.384,-0.672 -1.008,-1.424 -1.728,-1.904 -0.992,-0.656 -2.112,-0.8 -2.992,-0.8 -1.264,0 -2.88,0.192 -4.192,1.552 -0.896,0.912 -1.536,2.304 -1.536,4.048 0,2.128 0.944,3.4240004 1.568,4.0640004 1.248,1.28 2.624,1.488 3.904,1.488 1.264,0 2.624,-0.224 3.808,-1.456 1.184,-1.232 1.648,-3.2000004 1.648,-4.4960004 v -0.112 h -5.296 z"
           style="font-style:normal;font-variant:normal;font-weight:600;font-stretch:normal;font-size:16px;line-height:0;font-family:'Futura PT';-inkscape-font-specification:'Futura PT Semi-Bold';fill:#000000"
           id="path127" />
        <path
           d="m 84.245416,1.7915696 h -6.032 V 12.46357 h 6.032 v -2.08 h -3.568 V 8.0155696 h 3.392 v -2.08 h -3.392 v -2.064 h 3.568 z"
           style="font-style:normal;font-variant:normal;font-weight:600;font-stretch:normal;font-size:16px;line-height:0;font-family:'Futura PT';-inkscape-font-specification:'Futura PT Semi-Bold';fill:#000000"
           id="path129" />
        <path
           d="m 91.572666,1.5515696 c -2.128,0 -3.456,0.848 -4.176,1.568 -0.96,0.96 -1.648,2.512 -1.648,4.048 0,1.568 0.64,3.0080004 1.664,3.9680004 0.8,0.768 2.16,1.568 4.16,1.568 1.792,0 3.136,-0.608 4.128,-1.568 1.152,-1.12 1.664,-2.5760004 1.664,-4.0000004 0,-1.648 -0.656,-3.056 -1.664,-4.032 -1.072,-1.04 -2.464,-1.552 -4.128,-1.552 z m -0.016,2.272 c 0.976,0 1.824,0.4 2.352,0.912 0.48,0.48 0.928,1.296 0.928,2.4 0,1.232 -0.512,1.984 -0.928,2.384 -0.512,0.5120004 -1.28,0.9120004 -2.368,0.9120004 -0.832,0 -1.6,-0.224 -2.288,-0.8800004 -0.656,-0.64 -0.976,-1.424 -0.976,-2.4 0,-1.184 0.48,-1.968 0.944,-2.416 0.576,-0.576 1.408,-0.912 2.336,-0.912 z"
           style="font-style:normal;font-variant:normal;font-weight:600;font-stretch:normal;font-size:16px;line-height:0;font-family:'Futura PT';-inkscape-font-specification:'Futura PT Semi-Bold';fill:#000000"
           id="path131" />
        <path
           d="M 101.67742,12.46357 V 5.5515696 l 5.792,6.9120004 h 2.144 V 1.7915696 h -2.464 v 6.88 l -5.792,-6.88 H 99.213416 V 12.46357 Z"
           style="font-style:normal;font-variant:normal;font-weight:600;font-stretch:normal;font-size:16px;line-height:0;font-family:'Futura PT';-inkscape-font-specification:'Futura PT Semi-Bold';fill:#000000"
           id="path133" />
      </g>
      <g
         aria-label="DUNGEON"
         style="font-style:normal;font-variant:normal;font-weight:normal;font-stretch:normal;font-size:21.33333397px;line-height:1.25;font-family:'Futura PT';-inkscape-font-specification:'Futura PT';letter-spacing:0px;word-spacing:0px;display:inline;fill:#ffffff;fill-opacity:1;stroke:none"
         id="text5548">
        <path
           d="M 30.091471,0.59645932 V 11.268459 h 3.456 c 0.896,0 2.736,-0.112 4.208,-1.5999997 0.88,-0.88 1.456,-2.096 1.456,-3.776 0,-1.664 -0.592,-2.912 -1.536,-3.824 -1.312,-1.26399998 -2.8,-1.47199998 -4.208,-1.47199998 z m 2.464,2.07999998 h 0.656 c 0.752,0 1.792,0.112 2.592,0.912 0.416,0.416 0.88,1.152 0.88,2.304 0,1.184 -0.464,2.096 -1.04,2.576 -0.8,0.672 -1.92,0.72 -2.432,0.72 h -0.656 z"
           style="font-style:normal;font-variant:normal;font-weight:600;font-stretch:normal;font-size:16px;line-height:0;font-family:'Futura PT';-inkscape-font-specification:'Futura PT Semi-Bold';fill:#ffffff"
           id="path136" />
        <path
           d="m 50.084221,0.59645932 h -2.464 V 6.8524593 c 0,0.464 -0.032,1.248 -0.56,1.792 -0.432,0.464 -1.024,0.56 -1.488,0.56 -0.464,0 -1.056,-0.096 -1.488,-0.56 -0.528,-0.544 -0.56,-1.328 -0.56,-1.792 V 0.59645932 h -2.464 V 6.9164593 c 0,1.024 0.128,2.288 1.184,3.3759997 1.024,1.056 2.208,1.216 3.328,1.216 1.12,0 2.304,-0.16 3.328,-1.216 1.056,-1.0879997 1.184,-2.3519997 1.184,-3.3759997 z"
           style="font-style:normal;font-variant:normal;font-weight:600;font-stretch:normal;font-size:16px;line-height:0;font-family:'Futura PT';-inkscape-font-specification:'Futura PT Semi-Bold';fill:#ffffff"
           id="path138" />
        <path
           d="M 54.899221,11.268459 V 4.3564593 l 5.792,6.9119997 h 2.144 V 0.59645932 h -2.464 V 7.4764593 l -5.792,-6.87999998 h -2.144 V 11.268459 Z"
           style="font-style:normal;font-variant:normal;font-weight:600;font-stretch:normal;font-size:16px;line-height:0;font-family:'Futura PT';-inkscape-font-specification:'Futura PT Semi-Bold';fill:#ffffff"
           id="path140" />
        <path
           d="m 70.321221,7.4284593 h 2.576 c -0.208,0.784 -0.688,1.2 -0.768,1.264 -0.24,0.208 -0.8,0.576 -1.856,0.576 -0.816,0 -1.536,-0.192 -2.16,-0.832 -0.448,-0.448 -0.896,-1.232 -0.896,-2.448 0,-0.992 0.32,-1.904 0.912,-2.528 0.512,-0.544 1.232,-0.864 2.208,-0.864 0.608,0 1.152,0.16 1.632,0.512 0.416,0.304 0.736,0.736 0.944,1.152 l 2.224,-1.2 c -0.384,-0.672 -1.008,-1.424 -1.728,-1.904 -0.992,-0.65599998 -2.112,-0.79999998 -2.992,-0.79999998 -1.264,0 -2.88,0.192 -4.192,1.55199998 -0.896,0.912 -1.536,2.304 -1.536,4.048 0,2.128 0.944,3.424 1.568,4.0639997 1.248,1.28 2.624,1.488 3.904,1.488 1.264,0 2.624,-0.224 3.808,-1.456 1.184,-1.2319997 1.648,-3.1999997 1.648,-4.4959997 v -0.112 h -5.296 z"
           style="font-style:normal;font-variant:normal;font-weight:600;font-stretch:normal;font-size:16px;line-height:0;font-family:'Futura PT';-inkscape-font-specification:'Futura PT Semi-Bold';fill:#ffffff"
           id="path142" />
        <path
           d="m 83.498471,0.59645932 h -6.032 V 11.268459 h 6.032 V 9.1884593 h -3.568 v -2.368 h 3.392 v -2.08 h -3.392 v -2.064 h 3.568 z"
           style="font-style:normal;font-variant:normal;font-weight:600;font-stretch:normal;font-size:16px;line-height:0;font-family:'Futura PT';-inkscape-font-specification:'Futura PT Semi-Bold';fill:#ffffff"
           id="path144" />
        <path
           d="m 90.825721,0.35645932 c -2.128,0 -3.456,0.84799998 -4.176,1.56799998 -0.96,0.96 -1.648,2.512 -1.648,4.048 0,1.568 0.64,3.008 1.664,3.968 0.8,0.7679997 2.16,1.5679997 4.16,1.5679997 1.792,0 3.136,-0.608 4.128,-1.5679997 1.152,-1.12 1.664,-2.576 1.664,-4 0,-1.648 -0.656,-3.056 -1.664,-4.032 -1.072,-1.03999998 -2.464,-1.55199998 -4.128,-1.55199998 z m -0.016,2.27199998 c 0.976,0 1.824,0.4 2.352,0.912 0.48,0.48 0.928,1.296 0.928,2.4 0,1.232 -0.512,1.984 -0.928,2.384 -0.512,0.512 -1.28,0.912 -2.368,0.912 -0.832,0 -1.6,-0.224 -2.288,-0.88 -0.656,-0.64 -0.976,-1.424 -0.976,-2.4 0,-1.184 0.48,-1.968 0.944,-2.416 0.576,-0.576 1.408,-0.912 2.336,-0.912 z"
           style="font-style:normal;font-variant:normal;font-weight:600;font-stretch:normal;font-size:16px;line-height:0;font-family:'Futura PT';-inkscape-font-specification:'Futura PT Semi-Bold';fill:#ffffff"
           id="path146" />
        <path
           d="M 100.93047,11.268459 V 4.3564593 l 5.792,6.9119997 h 2.144 V 0.59645932 h -2.464 V 7.4764593 l -5.792,-6.87999998 H 98.466471 V 11.268459 Z"
           style="font-style:normal;font-variant:normal;font-weight:600;font-stretch:normal;font-size:16px;line-height:0;font-family:'Futura PT';-inkscape-font-specification:'Futura PT Semi-Bold';fill:#ffffff"
           id="path148" />
      </g>
    </g>
    <g
       aria-label="MASTER'S"
       style="font-style:normal;font-variant:normal;font-weight:normal;font-stretch:normal;font-size:21.33333397px;line-height:1.25;font-family:'Futura PT';-inkscape-font-specification:'Futura PT';letter-spacing:0px;word-spacing:0px;display:inline;fill:#000000;fill-opacity:1;stroke:none"
       id="text5552">
      <path
         d="m 24.520287,25.368946 0.933333,-5.373333 2.56,5.786666 2.586667,-5.773333 0.906666,5.36 h 1.386667 l -1.68,-9.56 -3.12,6.906667 -3.093333,-6.906667 -1.866667,9.56 z"
         style="font-size:13.33333302px;fill:#ffffff"
         id="path104" />
      <path
         d="m 40.914453,25.368946 h 1.466666 l -4.213333,-9.413333 -4.426667,9.413333 h 1.466667 l 0.973333,-2.146667 h 3.8 z m -4.173334,-3.426667 1.373334,-3.013333 1.32,3.013333 z"
         style="font-size:13.33333302px;fill:#ffffff"
         id="path106" />
      <path
         d="m 48.17737,17.808946 c -0.186667,-0.373333 -0.44,-0.68 -0.68,-0.893333 -0.28,-0.24 -0.826667,-0.6 -1.786667,-0.6 -1.666666,0 -2.6,1.146667 -2.6,2.346667 0,1.333333 1.08,1.946666 1.813334,2.253333 l 0.853333,0.36 c 0.586667,0.24 1.28,0.613333 1.28,1.52 0,0.893333 -0.64,1.493333 -1.466667,1.493333 -0.533333,0 -0.906666,-0.213333 -1.16,-0.533333 -0.213333,-0.28 -0.373333,-0.693334 -0.373333,-1.133334 l -1.346667,0.293334 c 0.05333,0.613333 0.266667,1.2 0.746667,1.733333 0.453333,0.506667 1.066667,0.893333 2.093333,0.893333 1.666667,0 2.866667,-1.16 2.866667,-2.853333 0,-1.013333 -0.453333,-1.946666 -2.093333,-2.613333 l -0.893334,-0.36 c -0.866666,-0.346667 -0.96,-0.813333 -0.96,-1.08 0,-0.573333 0.426667,-1.066667 1.253334,-1.066667 0.386666,0 0.68,0.09333 0.96,0.32 0.2,0.173334 0.32,0.36 0.4,0.56 z"
         style="font-size:13.33333302px;fill:#ffffff"
         id="path108" />
      <path
         d="m 54.365285,17.755613 v -1.28 h -5.44 v 1.28 h 2.04 v 7.613333 h 1.36 v -7.613333 z"
         style="font-size:13.33333302px;fill:#ffffff"
         id="path110" />
      <path
         d="m 60.46841,16.475613 h -4.906666 v 8.893333 h 4.906666 v -1.28 h -3.546666 v -2.8 h 3.44 v -1.28 h -3.44 v -2.253333 h 3.546666 z"
         style="font-size:13.33333302px;fill:#ffffff"
         id="path112" />
      <path
         d="m 62.228412,16.475613 v 8.893333 h 1.36 v -3.64 h 0.24 l 2.546666,3.64 h 1.64 l -2.773333,-3.8 c 1.186667,-0.266666 1.973333,-1.2 1.973333,-2.48 0,-0.386666 -0.08,-1.44 -1.053333,-2.093333 -0.573333,-0.386667 -1.266667,-0.52 -2.346667,-0.52 z m 1.36,1.253333 h 0.466666 c 0.666667,0 1.853334,0.12 1.853334,1.373334 0,1.413333 -1.52,1.453333 -1.893334,1.453333 h -0.426666 z"
         style="font-size:13.33333302px;fill:#ffffff"
         id="path114" />
      <path
         d="m 70.35112,16.475613 h -1.44 l 0.24,3.573333 h 0.96 z"
         style="font-size:13.33333302px;fill:#ffffff"
         id="path116" />
      <path
         d="m 77.812784,17.808946 c -0.186667,-0.373333 -0.44,-0.68 -0.68,-0.893333 -0.28,-0.24 -0.826667,-0.6 -1.786667,-0.6 -1.666666,0 -2.599999,1.146667 -2.599999,2.346667 0,1.333333 1.079999,1.946666 1.813333,2.253333 l 0.853333,0.36 c 0.586667,0.24 1.28,0.613333 1.28,1.52 0,0.893333 -0.64,1.493333 -1.466667,1.493333 -0.533333,0 -0.906666,-0.213333 -1.16,-0.533333 -0.213333,-0.28 -0.373333,-0.693334 -0.373333,-1.133334 l -1.346666,0.293334 c 0.05333,0.613333 0.266666,1.2 0.746666,1.733333 0.453333,0.506667 1.066667,0.893333 2.093333,0.893333 1.666667,0 2.866667,-1.16 2.866667,-2.853333 0,-1.013333 -0.453333,-1.946666 -2.093333,-2.613333 l -0.893334,-0.36 c -0.866666,-0.346667 -0.96,-0.813333 -0.96,-1.08 0,-0.573333 0.426667,-1.066667 1.253334,-1.066667 0.386666,0 0.68,0.09333 0.96,0.32 0.2,0.173334 0.32,0.36 0.4,0.56 z"
         style="font-size:13.33333302px;fill:#ffffff"
         id="path118" />
    </g>
    <g
       aria-label="VAULT"
       style="font-style:normal;font-variant:normal;font-weight:normal;font-stretch:normal;font-size:21.33333397px;line-height:1.25;font-family:'Futura PT';-inkscape-font-specification:'Futura PT';letter-spacing:0px;word-spacing:0px;display:inline;fill:#000000;fill-opacity:1;stroke:none"
       id="text5562">
      <path
         d="m 79.91444,16.400919 3.946667,9.466667 3.946666,-9.466667 h -1.466666 l -2.48,6.2 -2.48,-6.2 z"
         style="font-size:13.33333302px;fill:#ffffff"
         id="path93" />
      <path
         d="m 94.457565,25.294252 h 1.466667 l -4.213334,-9.413333 -4.426666,9.413333 h 1.466666 l 0.973334,-2.146666 h 3.8 z m -4.173333,-3.426666 1.373333,-3.013333 1.32,3.013333 z"
         style="font-size:13.33333302px;fill:#ffffff"
         id="path95" />
      <path
         d="m 97.047565,16.400919 v 5.72 c 0,0.706667 0.146666,1.56 0.826666,2.306667 0.466667,0.506666 1.253333,1.04 2.466669,1.04 1.21333,0 2,-0.533334 2.46666,-1.04 0.68,-0.746667 0.82667,-1.6 0.82667,-2.306667 v -5.72 h -1.36 v 5.36 c 0,0.48 -0.0133,1.066667 -0.28,1.533333 -0.26667,0.453334 -0.86667,0.92 -1.65333,0.92 -0.786669,0 -1.386669,-0.466666 -1.653335,-0.92 -0.266667,-0.466666 -0.28,-1.053333 -0.28,-1.533333 v -5.36 z"
         style="font-size:13.33333302px;fill:#ffffff"
         id="path97" />
      <path
         d="m 105.77152,16.400919 v 8.893333 h 3.97334 v -1.28 h -2.61334 v -7.613333 z"
         style="font-size:13.33333302px;fill:#ffffff"
         id="path99" />
      <path
         d="m 115.14798,17.680919 v -1.28 h -5.44 v 1.28 h 2.04 v 7.613333 h 1.36 v -7.613333 z"
         style="font-size:13.33333302px;fill:#ffffff"
         id="path101" />
    </g>
  </g>
  <g
     inkscape:groupmode="layer"
     id="layer9"
     inkscape:label="Face"
     style="display:inline">
    <g
       id="g5431">
      <g
         id="Fill-14"
         style="fill:none;fill-rule:evenodd;stroke:none;stroke-width:1">
        <use
           xlink:href="#path-13"
           id="use5276"
           style="fill:#000000;fill-opacity:1;filter:url(#filter-14)"
           x="0"
           y="0"
           width="100%"
           height="100%" />
        <use
           xlink:href="#path-13"
           id="use5278"
           style="fill:#ffffff;fill-rule:evenodd"
           x="0"
           y="0"
           width="100%"
           height="100%" />
      </g>
      <g
         id="g5422">
        <g
           style="fill:none;fill-rule:evenodd;stroke:none;stroke-width:1"
           id="Fill-16">
          <use
             height="100%"
             width="100%"
             y="0"
             x="0"
             style="fill:#000000;fill-opacity:1;filter:url(#filter-16)"
             id="use5281"
             xlink:href="#path-15" />
          <use
             height="100%"
             width="100%"
             y="0"
             x="0"
             style="fill:#ffffff;fill-rule:evenodd"
             id="use5283"
             xlink:href="#path-15" />
        </g>
      </g>
    </g>
  </g>
</svg>
