<?xml version="1.0" encoding="UTF-8" standalone="no"?>
<svg
   xmlns:dc="http://purl.org/dc/elements/1.1/"
   xmlns:cc="http://creativecommons.org/ns#"
   xmlns:rdf="http://www.w3.org/1999/02/22-rdf-syntax-ns#"
   xmlns:svg="http://www.w3.org/2000/svg"
   xmlns="http://www.w3.org/2000/svg"
   xmlns:xlink="http://www.w3.org/1999/xlink"
   xmlns:sodipodi="http://sodipodi.sourceforge.net/DTD/sodipodi-0.dtd"
   xmlns:inkscape="http://www.inkscape.org/namespaces/inkscape"
   width="120px"
   height="30px"
   viewBox="0 0 120 30"
   version="1.1"
   id="svg5289"
   sodipodi:docname="dmv-logo.svg"
   inkscape:version="0.92.4 (5da689c313, 2019-01-14)">
  <metadata
     id="metadata5293">
    <rdf:RDF>
      <cc:Work
         rdf:about="">
        <dc:format>image/svg+xml</dc:format>
        <dc:type
           rdf:resource="http://purl.org/dc/dcmitype/StillImage" />
        <dc:title>Page 1</dc:title>
      </cc:Work>
    </rdf:RDF>
  </metadata>
  <sodipodi:namedview
     pagecolor="#ffffff"
     bordercolor="#666666"
     borderopacity="1"
     objecttolerance="10"
     gridtolerance="10"
     guidetolerance="10"
     inkscape:pageopacity="0"
     inkscape:pageshadow="2"
     inkscape:window-width="1680"
     inkscape:window-height="987"
     id="namedview5291"
     showgrid="false"
     inkscape:zoom="9.4666667"
     inkscape:cx="63.597284"
     inkscape:cy="16.745442"
     inkscape:window-x="-8"
     inkscape:window-y="-8"
     inkscape:window-maximized="1"
     inkscape:current-layer="layer11" />
  <!-- Generator: Sketch 40.3 (33839) - http://www.bohemiancoding.com/sketch -->
  <title
     id="title5191">Page 1</title>
  <desc
     id="desc5193">Created with Sketch.</desc>
  <defs
     id="defs5243">
    <path
       d="M27.369614,14.022826 C27.369614,19.2548108 27.7298983,23.6036123 30.3219063,23.6036123 C32.913646,23.6036123 33.2747351,19.2548108 33.2747351,14.022826 C33.2747351,8.79084132 32.913646,4.44150501 30.3219063,4.44150501 C27.7298983,4.44150501 27.369614,8.79084132 27.369614,14.022826 M36.752565,14.022826 C36.752565,18.4700264 36.6871075,26.6775069 30.3219063,26.6775069 C23.9572416,26.6775069 23.8915159,18.4700264 23.8915159,14.022826 C23.8915159,9.57509088 23.9572416,1.36761038 30.3219063,1.36761038 C36.6871075,1.36761038 36.752565,9.57509088 36.752565,14.022826"
       id="path-1" />
    <filter
       x="-50%"
       y="-50%"
       width="200%"
       height="200%"
       filterUnits="objectBoundingBox"
       id="filter-2">
      <feOffset
         dx="1"
         dy="2"
         in="SourceAlpha"
         result="shadowOffsetOuter1"
         id="feOffset5196" />
      <feColorMatrix
         values="0 0 0 0 0   0 0 0 0 0   0 0 0 0 0  0 0 0 1 0"
         type="matrix"
         in="shadowOffsetOuter1"
         id="feColorMatrix5198" />
    </filter>
    <path
       d="M50.0072709,8.72543817 C50.0072709,6.37055037 49.7119075,4.40899061 47.2186222,4.47450072 L46.6941578,4.47450072 L46.6941578,12.6167385 C49.1541778,12.7803801 50.0072709,11.210544 50.0072709,8.72543817 L50.0072709,8.72543817 Z M43.4127003,1.6944657 L47.3498054,1.6944657 C49.7449045,1.6944657 53.4848324,1.8257533 53.4848324,8.00589655 C53.4848324,10.3276282 52.7959195,13.859024 50.0727283,14.3496814 L54.6332889,26.3505981 L51.2214531,26.3505981 L46.7596152,14.2841713 L46.6941578,14.2841713 L46.6941578,26.3505981 L43.4127003,26.3505981 L43.4127003,1.6944657 Z"
       id="path-3" />
    <filter
       x="-50%"
       y="-50%"
       width="200%"
       height="200%"
       filterUnits="objectBoundingBox"
       id="filter-4">
      <feOffset
         dx="1"
         dy="2"
         in="SourceAlpha"
         result="shadowOffsetOuter1"
         id="feOffset5202" />
      <feColorMatrix
         values="0 0 0 0 0   0 0 0 0 0   0 0 0 0 0  0 0 0 1 0"
         type="matrix"
         in="shadowOffsetOuter1"
         id="feColorMatrix5204" />
    </filter>
    <path
       d="M69.9231584,5.06270126 C69.2667059,4.73595289 68.577793,4.44155849 67.8234226,4.44155849 C63.2298651,4.44155849 63.1974046,11.1120917 63.1974046,14.1859863 C63.1974046,17.4558765 63.459771,23.6036658 67.9546058,23.6036658 C68.6759792,23.6036658 69.2991664,23.440559 69.9231584,23.1130084 L69.9231584,25.9909075 C69.1025257,26.5144536 68.2494326,26.6775604 67.2981534,26.6775604 C60.6056649,26.6775604 59.7195748,19.5816126 59.7195748,14.4148706 C59.7195748,9.47728028 60.342762,1.36766385 67.0685157,1.36766385 C68.1837069,1.36766385 68.9713425,1.53130543 69.9231584,2.08720548 L69.9231584,5.06270126 Z"
       id="path-5" />
    <filter
       x="-50%"
       y="-50%"
       width="200%"
       height="200%"
       filterUnits="objectBoundingBox"
       id="filter-6">
      <feOffset
         dx="1"
         dy="2"
         in="SourceAlpha"
         result="shadowOffsetOuter1"
         id="feOffset5208" />
      <feColorMatrix
         values="0 0 0 0 0   0 0 0 0 0   0 0 0 0 0  0 0 0 1 0"
         type="matrix"
         in="shadowOffsetOuter1"
         id="feColorMatrix5210" />
    </filter>
    <path
       d="M2.42855215,11.1074124 L3.32617778,11.1074124 C6.58322282,11.1074124 6.98186947,9.91486105 7.08166527,6.70138978 C7.08166527,3.25636034 6.15131091,2.32852332 2.89372933,2.32852332 L2.42855215,2.32852332 L2.42855215,11.1074124 Z M0.10212973,25.1867375 L0.10212973,0.208402356 L2.69440601,0.208402356 C6.28437197,0.208402356 9.47515475,0.539428935 9.47515475,6.70138978 C9.47515475,11.5379074 7.7796993,13.2275333 3.02705866,13.2275333 L2.42855215,13.2275333 L2.42855215,25.1867375 L0.10212973,25.1867375 Z"
       id="path-7" />
    <filter
       x="-50%"
       y="-50%"
       width="200%"
       height="200%"
       filterUnits="objectBoundingBox"
       id="filter-8">
      <feOffset
         dx="1"
         dy="2"
         in="SourceAlpha"
         result="shadowOffsetOuter1"
         id="feOffset5214" />
      <feColorMatrix
         values="0 0 0 0 0   0 0 0 0 0   0 0 0 0 0  0 0 0 1 0"
         type="matrix"
         in="shadowOffsetOuter1"
         id="feColorMatrix5216" />
    </filter>
    <path
       d="M25.7295291,17.2693465 C25.7295291,21.8740385 25.3636112,25.5182722 20.4779095,25.5182722 C15.4591467,25.5182722 15.2265582,21.741414 15.2265582,17.2693465 L15.2265582,0.208375617 L17.5529806,0.208375617 L17.5529806,17.1369893 C17.5529806,21.2780302 17.7855692,23.2652593 20.4779095,23.2652593 C23.1367163,23.2652593 23.4025702,21.2780302 23.4025702,17.1369893 L23.4025702,0.208375617 L25.7295291,0.208375617 L25.7295291,17.2693465 Z"
       id="path-9" />
    <filter
       x="-50%"
       y="-50%"
       width="200%"
       height="200%"
       filterUnits="objectBoundingBox"
       id="filter-10">
      <feOffset
         dx="1"
         dy="2"
         in="SourceAlpha"
         result="shadowOffsetOuter1"
         id="feOffset5220" />
      <feColorMatrix
         values="0 0 0 0 0   0 0 0 0 0   0 0 0 0 0  0 0 0 1 0"
         type="matrix"
         in="shadowOffsetOuter1"
         id="feColorMatrix5222" />
    </filter>
    <path
       d="M35.2697389,13.2276136 L35.2697389,23.199054 L35.9015107,23.199054 C39.3911443,23.199054 40.4215628,22.0725475 40.4215628,18.4948935 C40.4215628,14.2878077 38.9262354,13.2276136 35.9680412,13.2276136 L35.2697389,13.2276136 Z M35.2697389,2.19624638 L35.2697389,11.2398498 L35.9015107,11.2398498 C37.7954847,11.2398498 39.8230563,11.5708763 39.8230563,6.56911284 C39.8230563,2.62647398 38.8924336,2.19624638 35.9015107,2.19624638 L35.2697389,2.19624638 Z M36.2003616,0.208482572 C39.4909401,0.208482572 42.2165457,0.605821423 42.2165457,6.40333217 C42.2165457,8.8547471 41.7840973,10.9419793 39.2916168,12.2668878 C42.2830763,13.2276136 42.8145157,15.5464039 42.8145157,18.3293802 C42.8145157,23.5306153 41.0195327,25.1868178 35.9680412,25.1868178 L32.9433165,25.1868178 L32.9433165,0.208482572 L36.2003616,0.208482572 Z"
       id="path-11" />
    <filter
       x="-50%"
       y="-50%"
       width="200%"
       height="200%"
       filterUnits="objectBoundingBox"
       id="filter-12">
      <feOffset
         dx="1"
         dy="2"
         in="SourceAlpha"
         result="shadowOffsetOuter1"
         id="feOffset5226" />
      <feColorMatrix
         values="0 0 0 0 0   0 0 0 0 0   0 0 0 0 0  0 0 0 1 0"
         type="matrix"
         in="shadowOffsetOuter1"
         id="feColorMatrix5228" />
    </filter>
    <polygon
       id="path-13"
       points="3.77284444 12.1794786 1.5091968 24.1707694 8.69959119 27.363117 11.0442559 27.363117 19.0700376 22.7691205 16.2575131 12.1794786 14.5647403 19.9489772 12.5283159 18.2374254 11.1794631 21.3300372 9.69808569 17.1266949 6.94753113 22.0805959 6.18055215 18.3577501 4.77858218 20.7447245" />
    <filter
       x="-50%"
       y="-50%"
       width="200%"
       height="200%"
       filterUnits="objectBoundingBox"
       id="filter-14">
      <feOffset
         dx="1"
         dy="2"
         in="SourceAlpha"
         result="shadowOffsetOuter1"
         id="feOffset5232" />
      <feColorMatrix
         values="0 0 0 0 0   0 0 0 0 0   0 0 0 0 0  0 0 0 1 0"
         type="matrix"
         in="shadowOffsetOuter1"
         id="feColorMatrix5234" />
    </filter>
    <path
       d="M14.7330787,7.1705491 L10.6599616,7.1705491 L11.929407,5.58894795 L14.7330787,4.32339965 L14.7330787,7.1705491 Z M9.906396,12.8121725 L9.906396,9.66848958 L10.784438,10.0540633 L10.8681377,11.6840618 L9.906396,12.8121725 Z M9.17241401,12.1993188 L8.32602763,11.1776285 L8.3998014,9.70137832 L9.17241401,9.35216935 L9.17241401,12.1993188 Z M4.19684244,6.85422887 L4.19684244,4.00707942 L7.63523684,6.11623747 L8.26995956,6.85422887 L4.19684244,6.85422887 Z M16.463409,2.46478434 L5.07622583,0 L3.17178939,1.3313258 L1.71482442,3.33486551 L5.36536537e-05,9.42463155 L5.35066426,11.8872768 L5.35066426,19.4292281 L6.31106466,17.1518829 L7.06543504,21.0241986 L9.60352112,15.659322 L11.1814751,20.5166958 L12.127389,17.0943944 L14.062408,19.1393793 L14.062408,11.3821805 L18.3155331,11.3821805 L18.3155331,6.23469043 L16.463409,2.46478434 Z"
       id="path-15" />
    <filter
       x="-50%"
       y="-50%"
       width="200%"
       height="200%"
       filterUnits="objectBoundingBox"
       id="filter-16">
      <feOffset
         dx="1"
         dy="2"
         in="SourceAlpha"
         result="shadowOffsetOuter1"
         id="feOffset5238" />
      <feColorMatrix
         values="0 0 0 0 0   0 0 0 0 0   0 0 0 0 0  0 0 0 1 0"
         type="matrix"
         in="shadowOffsetOuter1"
         id="feColorMatrix5240" />
    </filter>
  </defs>
  <g
     inkscape:groupmode="layer"
     id="layer10"
     inkscape:label="background"
     style="display:none">
    <rect
       style="display:inline;fill:#666666;fill-opacity:0.88235294;stroke-width:0.88612139"
       id="rect5486"
       width="120.25795"
       height="30.325918"
       x="1.335858e-08"
       y="-0.02714015" />
  </g>
  <g
     inkscape:groupmode="layer"
     id="layer8"
     inkscape:label="orcpub"
     style="display:none">
    <g
       id="g5417">
      <g
         id="Fill-1"
         style="fill:none;fill-rule:evenodd;stroke:none;stroke-width:1">
        <use
           xlink:href="#path-1"
           id="use5245"
           style="fill:#000000;fill-opacity:1;filter:url(#filter-2)"
           x="0"
           y="0"
           width="100%"
           height="100%" />
        <use
           xlink:href="#path-1"
           id="use5247"
           style="fill:#ffffff;fill-rule:evenodd"
           x="0"
           y="0"
           width="100%"
           height="100%" />
      </g>
      <g
         id="Fill-3"
         style="fill:none;fill-rule:evenodd;stroke:none;stroke-width:1">
        <use
           xlink:href="#path-3"
           id="use5250"
           style="fill:#000000;fill-opacity:1;filter:url(#filter-4)"
           x="0"
           y="0"
           width="100%"
           height="100%" />
        <use
           xlink:href="#path-3"
           id="use5252"
           style="fill:#ffffff;fill-rule:evenodd"
           x="0"
           y="0"
           width="100%"
           height="100%" />
      </g>
      <g
         id="Fill-5"
         style="fill:none;fill-rule:evenodd;stroke:none;stroke-width:1">
        <use
           xlink:href="#path-5"
           id="use5255"
           style="fill:#000000;fill-opacity:1;filter:url(#filter-6)"
           x="0"
           y="0"
           width="100%"
           height="100%" />
        <use
           xlink:href="#path-5"
           id="use5257"
           style="fill:#ffffff;fill-rule:evenodd"
           x="0"
           y="0"
           width="100%"
           height="100%" />
      </g>
      <g
         transform="translate(76.18819,1.159128)"
         id="Fill-7"
         style="fill:none;fill-rule:evenodd;stroke:none;stroke-width:1">
        <use
           height="100%"
           width="100%"
           y="0"
           x="0"
           style="fill:#000000;fill-opacity:1;filter:url(#filter-8)"
           id="use5260"
           xlink:href="#path-7" />
        <use
           height="100%"
           width="100%"
           y="0"
           x="0"
           style="fill:#ffffff;fill-rule:evenodd"
           id="use5262"
           xlink:href="#path-7" />
      </g>
      <g
         transform="translate(76.18819,1.159128)"
         id="Fill-9"
         style="fill:none;fill-rule:evenodd;stroke:none;stroke-width:1">
        <use
           height="100%"
           width="100%"
           y="0"
           x="0"
           style="fill:#000000;fill-opacity:1;filter:url(#filter-10)"
           id="use5265"
           xlink:href="#path-9" />
        <use
           height="100%"
           width="100%"
           y="0"
           x="0"
           style="fill:#ffffff;fill-rule:evenodd"
           id="use5267"
           xlink:href="#path-9" />
      </g>
      <g
         transform="translate(76.18819,1.159128)"
         id="Fill-11"
         style="fill:none;fill-rule:evenodd;stroke:none;stroke-width:1">
        <use
           height="100%"
           width="100%"
           y="0"
           x="0"
           style="fill:#000000;fill-opacity:1;filter:url(#filter-12)"
           id="use5270"
           xlink:href="#path-11" />
        <use
           height="100%"
           width="100%"
           y="0"
           x="0"
           style="fill:#ffffff;fill-rule:evenodd"
           id="use5272"
           xlink:href="#path-11" />
      </g>
    </g>
  </g>
  <g
     inkscape:groupmode="layer"
     id="layer11"
     inkscape:label="DMV"
     style="display:inline">
    <g
       aria-label="VAULT"
       style="font-style:normal;font-variant:normal;font-weight:normal;font-stretch:normal;font-size:21.33333397px;line-height:1.25;font-family:'Futura PT';-inkscape-font-specification:'Futura PT';letter-spacing:0px;word-spacing:0px;display:inline;fill:#000000;fill-opacity:1;stroke:none"
       id="text5496">
      <path
         d="m 80.576538,16.628503 4.144,9.94 4.144,-9.94 h -1.54 l -2.604,6.51 -2.604,-6.51 z"
         style="font-size:14px;fill:#000000"
         id="path6108" />
      <path
         d="m 95.84682,25.966503 h 1.54 l -4.424,-9.884 -4.648,9.884 h 1.54 l 1.022,-2.254 h 3.99 z m -4.382,-3.598 1.442,-3.164 1.386,3.164 z"
         style="font-size:14px;fill:#000000"
         id="path6110" />
      <path
         d="m 98.56632,16.628503 v 6.006 c 0,0.742 0.154,1.638 0.868,2.422 0.49,0.532 1.316,1.092 2.59,1.092 1.274,0 2.1,-0.56 2.59,-1.092 0.714,-0.784 0.868,-1.68 0.868,-2.422 v -6.006 h -1.428 v 5.628 c 0,0.504 -0.014,1.12 -0.294,1.61 -0.28,0.476 -0.91,0.966 -1.736,0.966 -0.826,0 -1.456,-0.49 -1.736,-0.966 -0.28,-0.49 -0.294,-1.106 -0.294,-1.61 v -5.628 z"
         style="font-size:14px;fill:#000000"
         id="path6112" />
      <path
         d="m 107.72648,16.628503 v 9.338 h 4.172 v -1.344 h -2.744 v -7.994 z"
         style="font-size:14px;fill:#000000"
         id="path6114" />
      <path
         d="m 117.57176,17.972503 v -1.344 h -5.712 v 1.344 h 2.142 v 7.994 h 1.428 v -7.994 z"
         style="font-size:14px;fill:#000000"
         id="path6116" />
    </g>
    <g
       aria-label="MASTERS"
       style="font-style:normal;font-variant:normal;font-weight:normal;font-stretch:normal;font-size:21.33333397px;line-height:1.25;font-family:'Futura PT';-inkscape-font-specification:'Futura PT';letter-spacing:0px;word-spacing:0px;display:inline;fill:#000000;fill-opacity:1;stroke:none"
       id="text5492">
      <path
         d="m 25.301869,25.966501 0.98,-5.642 2.688,6.076 2.716,-6.062 0.952,5.628 h 1.456 l -1.764,-10.038 -3.276,7.252 -3.248,-7.252 -1.96,10.038 z"
         style="font-size:14px;fill:#000000"
         id="path6093" />
      <path
         d="m 42.515744,25.966501 h 1.54 l -4.424,-9.884 -4.648,9.884 h 1.54 l 1.022,-2.254 h 3.99 z m -4.382,-3.598 1.442,-3.164 1.386,3.164 z"
         style="font-size:14px;fill:#000000"
         id="path6095" />
      <path
         d="m 50.141806,18.028501 c -0.196,-0.392 -0.462,-0.714 -0.714,-0.938 -0.294,-0.252 -0.868,-0.63 -1.876,-0.63 -1.75,0 -2.73,1.204 -2.73,2.464 0,1.4 1.134,2.044 1.904,2.366 l 0.896,0.378 c 0.616,0.252 1.344,0.644 1.344,1.596 0,0.938 -0.672,1.568 -1.54,1.568 -0.56,0 -0.952,-0.224 -1.218,-0.56 -0.224,-0.294 -0.392,-0.728 -0.392,-1.19 l -1.414,0.308 c 0.056,0.644 0.28,1.26 0.784,1.82 0.476,0.532 1.12,0.938 2.198,0.938 1.75,0 3.01,-1.218 3.01,-2.996 0,-1.064 -0.476,-2.044 -2.198,-2.744 l -0.938,-0.378 c -0.91,-0.364 -1.008,-0.854 -1.008,-1.134 0,-0.602 0.448,-1.12 1.316,-1.12 0.406,0 0.714,0.098 1.008,0.336 0.21,0.182 0.336,0.378 0.42,0.588 z"
         style="font-size:14px;fill:#000000"
         id="path6097" />
      <path
         d="m 56.639119,17.972501 v -1.344 h -5.712 v 1.344 h 2.142 v 7.994 h 1.428 v -7.994 z"
         style="font-size:14px;fill:#000000"
         id="path6099" />
      <path
         d="m 63.0474,16.628501 h -5.152 v 9.338 h 5.152 v -1.344 h -3.724 v -2.94 h 3.612 v -1.344 h -3.612 v -2.366 h 3.724 z"
         style="font-size:14px;fill:#000000"
         id="path6101" />
      <path
         d="m 64.8954,16.628501 v 9.338 h 1.428 v -3.822 h 0.252 l 2.674,3.822 h 1.722 l -2.912,-3.99 c 1.246,-0.28 2.072,-1.26 2.072,-2.604 0,-0.406 -0.084,-1.512 -1.106,-2.198 -0.602,-0.406 -1.33,-0.546 -2.464,-0.546 z m 1.428,1.316 h 0.49 c 0.7,0 1.946,0.126 1.946,1.442 0,1.484 -1.596,1.526 -1.988,1.526 h -0.448 z"
         style="font-size:14px;fill:#000000"
         id="path6103" />
      <path
         d="m 77.540244,18.028501 c -0.196,-0.392 -0.462,-0.714 -0.714,-0.938 -0.294,-0.252 -0.868,-0.63 -1.876,-0.63 -1.75,0 -2.73,1.204 -2.73,2.464 0,1.4 1.134,2.044 1.904,2.366 l 0.896,0.378 c 0.616,0.252 1.344,0.644 1.344,1.596 0,0.938 -0.672,1.568 -1.54,1.568 -0.56,0 -0.952,-0.224 -1.218,-0.56 -0.224,-0.294 -0.392,-0.728 -0.392,-1.19 l -1.414,0.308 c 0.056,0.644 0.28,1.26 0.784,1.82 0.476,0.532 1.12,0.938 2.198,0.938 1.75,0 3.01,-1.218 3.01,-2.996 0,-1.064 -0.476,-2.044 -2.198,-2.744 l -0.938,-0.378 c -0.91,-0.364 -1.008,-0.854 -1.008,-1.134 0,-0.602 0.448,-1.12 1.316,-1.12 0.406,0 0.714,0.098 1.008,0.336 0.21,0.182 0.336,0.378 0.42,0.588 z"
         style="font-size:14px;fill:#000000"
         id="path6105" />
    </g>
    <g
       id="g5558">
      <g
         aria-label="DUNGEON"
         style="font-style:normal;font-variant:normal;font-weight:normal;font-stretch:normal;font-size:21.33333397px;line-height:1.25;font-family:'Futura PT';-inkscape-font-specification:'Futura PT';letter-spacing:0px;word-spacing:0px;display:inline;fill:#000000;fill-opacity:1;stroke:none"
         id="text5448">
        <path
           d="M 30.838416,1.7915696 V 12.46357 h 3.456 c 0.896,0 2.736,-0.112 4.208,-1.6 0.88,-0.8800004 1.456,-2.0960004 1.456,-3.7760004 0,-1.664 -0.592,-2.912 -1.536,-3.824 -1.312,-1.264 -2.8,-1.472 -4.208,-1.472 z m 2.464,2.08 h 0.656 c 0.752,0 1.792,0.112 2.592,0.912 0.416,0.416 0.88,1.152 0.88,2.304 0,1.184 -0.464,2.096 -1.04,2.576 -0.8,0.6720004 -1.92,0.7200004 -2.432,0.7200004 h -0.656 z"
           style="font-style:normal;font-variant:normal;font-weight:600;font-stretch:normal;font-size:16px;line-height:0;font-family:'Futura PT';-inkscape-font-specification:'Futura PT Semi-Bold';fill:#000000"
           id="path6063" />
        <path
           d="m 50.831166,1.7915696 h -2.464 v 6.256 c 0,0.464 -0.032,1.248 -0.56,1.792 -0.432,0.4640004 -1.024,0.5600004 -1.488,0.5600004 -0.464,0 -1.056,-0.096 -1.488,-0.5600004 -0.528,-0.544 -0.56,-1.328 -0.56,-1.792 v -6.256 h -2.464 v 6.32 c 0,1.024 0.128,2.2880004 1.184,3.3760004 1.024,1.056 2.208,1.216 3.328,1.216 1.12,0 2.304,-0.16 3.328,-1.216 1.056,-1.088 1.184,-2.3520004 1.184,-3.3760004 z"
           style="font-style:normal;font-variant:normal;font-weight:600;font-stretch:normal;font-size:16px;line-height:0;font-family:'Futura PT';-inkscape-font-specification:'Futura PT Semi-Bold';fill:#000000"
           id="path6065" />
        <path
           d="M 55.646166,12.46357 V 5.5515696 l 5.792,6.9120004 h 2.144 V 1.7915696 h -2.464 v 6.88 l -5.792,-6.88 h -2.144 V 12.46357 Z"
           style="font-style:normal;font-variant:normal;font-weight:600;font-stretch:normal;font-size:16px;line-height:0;font-family:'Futura PT';-inkscape-font-specification:'Futura PT Semi-Bold';fill:#000000"
           id="path6067" />
        <path
           d="m 71.068166,8.6235696 h 2.576 c -0.208,0.784 -0.688,1.2 -0.768,1.264 -0.24,0.2080004 -0.8,0.5760004 -1.856,0.5760004 -0.816,0 -1.536,-0.192 -2.16,-0.8320004 -0.448,-0.448 -0.896,-1.232 -0.896,-2.448 0,-0.992 0.32,-1.904 0.912,-2.528 0.512,-0.544 1.232,-0.864 2.208,-0.864 0.608,0 1.152,0.16 1.632,0.512 0.416,0.304 0.736,0.736 0.944,1.152 l 2.224,-1.2 c -0.384,-0.672 -1.008,-1.424 -1.728,-1.904 -0.992,-0.656 -2.112,-0.8 -2.992,-0.8 -1.264,0 -2.88,0.192 -4.192,1.552 -0.896,0.912 -1.536,2.304 -1.536,4.048 0,2.128 0.944,3.4240004 1.568,4.0640004 1.248,1.28 2.624,1.488 3.904,1.488 1.264,0 2.624,-0.224 3.808,-1.456 1.184,-1.232 1.648,-3.2000004 1.648,-4.4960004 v -0.112 h -5.296 z"
           style="font-style:normal;font-variant:normal;font-weight:600;font-stretch:normal;font-size:16px;line-height:0;font-family:'Futura PT';-inkscape-font-specification:'Futura PT Semi-Bold';fill:#000000"
           id="path6069" />
        <path
           d="m 84.245416,1.7915696 h -6.032 V 12.46357 h 6.032 v -2.08 h -3.568 V 8.0155696 h 3.392 v -2.08 h -3.392 v -2.064 h 3.568 z"
           style="font-style:normal;font-variant:normal;font-weight:600;font-stretch:normal;font-size:16px;line-height:0;font-family:'Futura PT';-inkscape-font-specification:'Futura PT Semi-Bold';fill:#000000"
           id="path6071" />
        <path
           d="m 91.572666,1.5515696 c -2.128,0 -3.456,0.848 -4.176,1.568 -0.96,0.96 -1.648,2.512 -1.648,4.048 0,1.568 0.64,3.0080004 1.664,3.9680004 0.8,0.768 2.16,1.568 4.16,1.568 1.792,0 3.136,-0.608 4.128,-1.568 1.152,-1.12 1.664,-2.5760004 1.664,-4.0000004 0,-1.648 -0.656,-3.056 -1.664,-4.032 -1.072,-1.04 -2.464,-1.552 -4.128,-1.552 z m -0.016,2.272 c 0.976,0 1.824,0.4 2.352,0.912 0.48,0.48 0.928,1.296 0.928,2.4 0,1.232 -0.512,1.984 -0.928,2.384 -0.512,0.5120004 -1.28,0.9120004 -2.368,0.9120004 -0.832,0 -1.6,-0.224 -2.288,-0.8800004 -0.656,-0.64 -0.976,-1.424 -0.976,-2.4 0,-1.184 0.48,-1.968 0.944,-2.416 0.576,-0.576 1.408,-0.912 2.336,-0.912 z"
           style="font-style:normal;font-variant:normal;font-weight:600;font-stretch:normal;font-size:16px;line-height:0;font-family:'Futura PT';-inkscape-font-specification:'Futura PT Semi-Bold';fill:#000000"
           id="path6073" />
        <path
           d="M 101.67742,12.46357 V 5.5515696 l 5.792,6.9120004 h 2.144 V 1.7915696 h -2.464 v 6.88 l -5.792,-6.88 H 99.213416 V 12.46357 Z"
           style="font-style:normal;font-variant:normal;font-weight:600;font-stretch:normal;font-size:16px;line-height:0;font-family:'Futura PT';-inkscape-font-specification:'Futura PT Semi-Bold';fill:#000000"
           id="path6075" />
      </g>
      <g
         aria-label="DUNGEON"
         style="font-style:normal;font-variant:normal;font-weight:normal;font-stretch:normal;font-size:21.33333397px;line-height:1.25;font-family:'Futura PT';-inkscape-font-specification:'Futura PT';letter-spacing:0px;word-spacing:0px;display:inline;fill:#ffffff;fill-opacity:1;stroke:none"
         id="text5548">
        <path
           d="M 30.091471,0.59645932 V 11.268459 h 3.456 c 0.896,0 2.736,-0.112 4.208,-1.5999997 0.88,-0.88 1.456,-2.096 1.456,-3.776 0,-1.664 -0.592,-2.912 -1.536,-3.824 -1.312,-1.26399998 -2.8,-1.47199998 -4.208,-1.47199998 z m 2.464,2.07999998 h 0.656 c 0.752,0 1.792,0.112 2.592,0.912 0.416,0.416 0.88,1.152 0.88,2.304 0,1.184 -0.464,2.096 -1.04,2.576 -0.8,0.672 -1.92,0.72 -2.432,0.72 h -0.656 z"
           style="font-style:normal;font-variant:normal;font-weight:600;font-stretch:normal;font-size:16px;line-height:0;font-family:'Futura PT';-inkscape-font-specification:'Futura PT Semi-Bold';fill:#ffffff"
           id="path6078" />
        <path
           d="m 50.084221,0.59645932 h -2.464 V 6.8524593 c 0,0.464 -0.032,1.248 -0.56,1.792 -0.432,0.464 -1.024,0.56 -1.488,0.56 -0.464,0 -1.056,-0.096 -1.488,-0.56 -0.528,-0.544 -0.56,-1.328 -0.56,-1.792 V 0.59645932 h -2.464 V 6.9164593 c 0,1.024 0.128,2.288 1.184,3.3759997 1.024,1.056 2.208,1.216 3.328,1.216 1.12,0 2.304,-0.16 3.328,-1.216 1.056,-1.0879997 1.184,-2.3519997 1.184,-3.3759997 z"
           style="font-style:normal;font-variant:normal;font-weight:600;font-stretch:normal;font-size:16px;line-height:0;font-family:'Futura PT';-inkscape-font-specification:'Futura PT Semi-Bold';fill:#ffffff"
           id="path6080" />
        <path
           d="M 54.899221,11.268459 V 4.3564593 l 5.792,6.9119997 h 2.144 V 0.59645932 h -2.464 V 7.4764593 l -5.792,-6.87999998 h -2.144 V 11.268459 Z"
           style="font-style:normal;font-variant:normal;font-weight:600;font-stretch:normal;font-size:16px;line-height:0;font-family:'Futura PT';-inkscape-font-specification:'Futura PT Semi-Bold';fill:#ffffff"
           id="path6082" />
        <path
           d="m 70.321221,7.4284593 h 2.576 c -0.208,0.784 -0.688,1.2 -0.768,1.264 -0.24,0.208 -0.8,0.576 -1.856,0.576 -0.816,0 -1.536,-0.192 -2.16,-0.832 -0.448,-0.448 -0.896,-1.232 -0.896,-2.448 0,-0.992 0.32,-1.904 0.912,-2.528 0.512,-0.544 1.232,-0.864 2.208,-0.864 0.608,0 1.152,0.16 1.632,0.512 0.416,0.304 0.736,0.736 0.944,1.152 l 2.224,-1.2 c -0.384,-0.672 -1.008,-1.424 -1.728,-1.904 -0.992,-0.65599998 -2.112,-0.79999998 -2.992,-0.79999998 -1.264,0 -2.88,0.192 -4.192,1.55199998 -0.896,0.912 -1.536,2.304 -1.536,4.048 0,2.128 0.944,3.424 1.568,4.0639997 1.248,1.28 2.624,1.488 3.904,1.488 1.264,0 2.624,-0.224 3.808,-1.456 1.184,-1.2319997 1.648,-3.1999997 1.648,-4.4959997 v -0.112 h -5.296 z"
           style="font-style:normal;font-variant:normal;font-weight:600;font-stretch:normal;font-size:16px;line-height:0;font-family:'Futura PT';-inkscape-font-specification:'Futura PT Semi-Bold';fill:#ffffff"
           id="path6084" />
        <path
           d="m 83.498471,0.59645932 h -6.032 V 11.268459 h 6.032 V 9.1884593 h -3.568 v -2.368 h 3.392 v -2.08 h -3.392 v -2.064 h 3.568 z"
           style="font-style:normal;font-variant:normal;font-weight:600;font-stretch:normal;font-size:16px;line-height:0;font-family:'Futura PT';-inkscape-font-specification:'Futura PT Semi-Bold';fill:#ffffff"
           id="path6086" />
        <path
           d="m 90.825721,0.35645932 c -2.128,0 -3.456,0.84799998 -4.176,1.56799998 -0.96,0.96 -1.648,2.512 -1.648,4.048 0,1.568 0.64,3.008 1.664,3.968 0.8,0.7679997 2.16,1.5679997 4.16,1.5679997 1.792,0 3.136,-0.608 4.128,-1.5679997 1.152,-1.12 1.664,-2.576 1.664,-4 0,-1.648 -0.656,-3.056 -1.664,-4.032 -1.072,-1.03999998 -2.464,-1.55199998 -4.128,-1.55199998 z m -0.016,2.27199998 c 0.976,0 1.824,0.4 2.352,0.912 0.48,0.48 0.928,1.296 0.928,2.4 0,1.232 -0.512,1.984 -0.928,2.384 -0.512,0.512 -1.28,0.912 -2.368,0.912 -0.832,0 -1.6,-0.224 -2.288,-0.88 -0.656,-0.64 -0.976,-1.424 -0.976,-2.4 0,-1.184 0.48,-1.968 0.944,-2.416 0.576,-0.576 1.408,-0.912 2.336,-0.912 z"
           style="font-style:normal;font-variant:normal;font-weight:600;font-stretch:normal;font-size:16px;line-height:0;font-family:'Futura PT';-inkscape-font-specification:'Futura PT Semi-Bold';fill:#ffffff"
           id="path6088" />
        <path
           d="M 100.93047,11.268459 V 4.3564593 l 5.792,6.9119997 h 2.144 V 0.59645932 h -2.464 V 7.4764593 l -5.792,-6.87999998 H 98.466471 V 11.268459 Z"
           style="font-style:normal;font-variant:normal;font-weight:600;font-stretch:normal;font-size:16px;line-height:0;font-family:'Futura PT';-inkscape-font-specification:'Futura PT Semi-Bold';fill:#ffffff"
           id="path6090" />
      </g>
    </g>
    <g
       aria-label="MASTERS"
       style="font-style:normal;font-variant:normal;font-weight:normal;font-stretch:normal;font-size:21.33333397px;line-height:1.25;font-family:'Futura PT';-inkscape-font-specification:'Futura PT';letter-spacing:0px;word-spacing:0px;display:inline;fill:#000000;fill-opacity:1;stroke:none"
       id="text5552">
      <path
         d="m 24.62962,25.368946 0.98,-5.642 2.688,6.076 2.716,-6.062 0.952,5.628 h 1.456 l -1.764,-10.038 -3.276,7.252 -3.248,-7.252 -1.96,10.038 z"
         style="font-size:14px;fill:#ffffff"
         id="path6048" />
      <path
         d="m 41.843495,25.368946 h 1.54 l -4.424,-9.884 -4.648,9.884 h 1.54 l 1.022,-2.254 h 3.99 z m -4.382,-3.598 1.442,-3.164 1.386,3.164 z"
         style="font-size:14px;fill:#ffffff"
         id="path6050" />
      <path
         d="m 49.469558,17.430946 c -0.196,-0.392 -0.462,-0.714 -0.714,-0.938 -0.294,-0.252 -0.868,-0.63 -1.876,-0.63 -1.75,0 -2.73,1.204 -2.73,2.464 0,1.4 1.134,2.044 1.904,2.366 l 0.896,0.378 c 0.616,0.252 1.344,0.644 1.344,1.596 0,0.938 -0.672,1.568 -1.54,1.568 -0.56,0 -0.952,-0.224 -1.218,-0.56 -0.224,-0.294 -0.392,-0.728 -0.392,-1.19 l -1.414,0.308 c 0.056,0.644 0.28,1.26 0.784,1.82 0.476,0.532 1.12,0.938 2.198,0.938 1.75,0 3.01,-1.218 3.01,-2.996 0,-1.064 -0.476,-2.044 -2.198,-2.744 l -0.938,-0.378 c -0.91,-0.364 -1.008,-0.854 -1.008,-1.134 0,-0.602 0.448,-1.12 1.316,-1.12 0.406,0 0.714,0.098 1.008,0.336 0.21,0.182 0.336,0.378 0.42,0.588 z"
         style="font-size:14px;fill:#ffffff"
         id="path6052" />
      <path
         d="m 55.96687,17.374946 v -1.344 h -5.712 v 1.344 h 2.142 v 7.994 h 1.428 v -7.994 z"
         style="font-size:14px;fill:#ffffff"
         id="path6054" />
      <path
         d="m 62.375151,16.030946 h -5.152 v 9.338 h 5.152 v -1.344 h -3.724 v -2.94 h 3.612 v -1.344 h -3.612 v -2.366 h 3.724 z"
         style="font-size:14px;fill:#ffffff"
         id="path6056" />
      <path
         d="m 64.223151,16.030946 v 9.338 h 1.428 v -3.822 h 0.252 l 2.674,3.822 h 1.722 l -2.912,-3.99 c 1.246,-0.28 2.072,-1.26 2.072,-2.604 0,-0.406 -0.084,-1.512 -1.106,-2.198 -0.602,-0.406 -1.33,-0.546 -2.464,-0.546 z m 1.428,1.316 h 0.49 c 0.7,0 1.946,0.126 1.946,1.442 0,1.484 -1.596,1.526 -1.988,1.526 h -0.448 z"
         style="font-size:14px;fill:#ffffff"
         id="path6058" />
      <path
         d="m 76.867995,17.430946 c -0.196,-0.392 -0.462,-0.714 -0.714,-0.938 -0.294,-0.252 -0.868,-0.63 -1.876,-0.63 -1.75,0 -2.73,1.204 -2.73,2.464 0,1.4 1.134,2.044 1.904,2.366 l 0.896,0.378 c 0.616,0.252 1.344,0.644 1.344,1.596 0,0.938 -0.672,1.568 -1.54,1.568 -0.56,0 -0.952,-0.224 -1.218,-0.56 -0.224,-0.294 -0.392,-0.728 -0.392,-1.19 l -1.414,0.308 c 0.056,0.644 0.28,1.26 0.784,1.82 0.476,0.532 1.12,0.938 2.198,0.938 1.75,0 3.01,-1.218 3.01,-2.996 0,-1.064 -0.476,-2.044 -2.198,-2.744 l -0.938,-0.378 c -0.91,-0.364 -1.008,-0.854 -1.008,-1.134 0,-0.602 0.448,-1.12 1.316,-1.12 0.406,0 0.714,0.098 1.008,0.336 0.21,0.182 0.336,0.378 0.42,0.588 z"
         style="font-size:14px;fill:#ffffff"
         id="path6060" />
    </g>
    <g
       aria-label="VAULT"
       style="font-style:normal;font-variant:normal;font-weight:normal;font-stretch:normal;font-size:21.33333397px;line-height:1.25;font-family:'Futura PT';-inkscape-font-specification:'Futura PT';letter-spacing:0px;word-spacing:0px;display:inline;fill:#000000;fill-opacity:1;stroke:none"
       id="text5562">
      <path
         d="m 79.917107,15.956252 4.144,9.94 4.144,-9.94 h -1.54 l -2.604,6.51 -2.604,-6.51 z"
         style="font-size:14px;fill:#ffffff"
         id="path6037" />
      <path
         d="m 95.187388,25.294252 h 1.54 l -4.424,-9.884 -4.648,9.884 h 1.54 l 1.022,-2.254 h 3.99 z m -4.382,-3.598 1.442,-3.164 1.386,3.164 z"
         style="font-size:14px;fill:#ffffff"
         id="path6039" />
      <path
         d="m 97.906888,15.956252 v 6.006 c 0,0.742 0.154,1.638 0.868,2.422 0.49,0.532 1.316002,1.092 2.590002,1.092 1.274,0 2.1,-0.56 2.59,-1.092 0.714,-0.784 0.868,-1.68 0.868,-2.422 v -6.006 h -1.428 v 5.628 c 0,0.504 -0.014,1.12 -0.294,1.61 -0.28,0.476 -0.91,0.966 -1.736,0.966 -0.826,0 -1.456002,-0.49 -1.736002,-0.966 -0.28,-0.49 -0.294,-1.106 -0.294,-1.61 v -5.628 z"
         style="font-size:14px;fill:#ffffff"
         id="path6041" />
      <path
         d="m 107.06704,15.956252 v 9.338 h 4.172 v -1.344 h -2.744 v -7.994 z"
         style="font-size:14px;fill:#ffffff"
         id="path6043" />
      <path
         d="m 116.91233,17.300252 v -1.344 h -5.712 v 1.344 h 2.142 v 7.994 h 1.428 v -7.994 z"
         style="font-size:14px;fill:#ffffff"
         id="path6045" />
    </g>
  </g>
  <g
     inkscape:groupmode="layer"
     id="layer9"
     inkscape:label="Face"
     style="display:inline">
    <g
       id="g5431">
      <g
         id="Fill-14"
         style="fill:none;fill-rule:evenodd;stroke:none;stroke-width:1">
        <use
           xlink:href="#path-13"
           id="use5276"
           style="fill:#000000;fill-opacity:1;filter:url(#filter-14)"
           x="0"
           y="0"
           width="100%"
           height="100%" />
        <use
           xlink:href="#path-13"
           id="use5278"
           style="fill:#ffffff;fill-rule:evenodd"
           x="0"
           y="0"
           width="100%"
           height="100%" />
      </g>
      <g
         id="g5422">
        <g
           style="fill:none;fill-rule:evenodd;stroke:none;stroke-width:1"
           id="Fill-16">
          <use
             height="100%"
             width="100%"
             y="0"
             x="0"
             style="fill:#000000;fill-opacity:1;filter:url(#filter-16)"
             id="use5281"
             xlink:href="#path-15" />
          <use
             height="100%"
             width="100%"
             y="0"
             x="0"
             style="fill:#ffffff;fill-rule:evenodd"
             id="use5283"
             xlink:href="#path-15" />
        </g>
      </g>
    </g>
  </g>
</svg>
